<?xml version="1.0" encoding="utf-8" standalone="no"?>
<!DOCTYPE svg PUBLIC "-//W3C//DTD SVG 1.1//EN"
  "http://www.w3.org/Graphics/SVG/1.1/DTD/svg11.dtd">
<svg xmlns:xlink="http://www.w3.org/1999/xlink" width="1080pt" height="720pt" viewBox="0 0 1080 720" xmlns="http://www.w3.org/2000/svg" version="1.1">
 <metadata>
  <rdf:RDF xmlns:dc="http://purl.org/dc/elements/1.1/" xmlns:cc="http://creativecommons.org/ns#" xmlns:rdf="http://www.w3.org/1999/02/22-rdf-syntax-ns#">
   <cc:Work>
    <dc:type rdf:resource="http://purl.org/dc/dcmitype/StillImage"/>
    <dc:date>2023-05-03T15:30:00.770516</dc:date>
    <dc:format>image/svg+xml</dc:format>
    <dc:creator>
     <cc:Agent>
      <dc:title>Matplotlib v3.6.3, https://matplotlib.org/</dc:title>
     </cc:Agent>
    </dc:creator>
   </cc:Work>
  </rdf:RDF>
 </metadata>
 <defs>
  <style type="text/css">*{stroke-linejoin: round; stroke-linecap: butt}</style>
 </defs>
 <g id="figure_1">
  <g id="patch_1">
   <path d="M 0 720 
L 1080 720 
L 1080 0 
L 0 0 
z
" style="fill: #b0eeff"/>
  </g>
  <g id="axes_1">
   <g id="patch_2">
    <path d="M 135 640.8 
L 972 640.8 
L 972 86.4 
L 135 86.4 
L 135 640.8 
z
" style="fill: none"/>
   </g>
   <g id="line2d_1">
    <path d="M 173.045455 615.6 
L 174.732614 581.705812 
L 176.419774 560.111177 
L 178.106934 543.680477 
L 179.794094 528.939791 
L 183.168414 507.532936 
L 184.855573 498.519523 
L 186.542733 487.440537 
L 188.229893 481.056036 
L 189.917053 473.450969 
L 191.604213 466.784799 
L 196.665692 448.194635 
L 198.352852 443.12459 
L 201.727172 431.857824 
L 203.414332 427.069449 
L 205.101492 420.966617 
L 206.788651 415.521013 
L 208.475811 412.422653 
L 210.162971 408.667064 
L 211.850131 406.413711 
L 213.537291 403.690909 
L 216.911611 397.400298 
L 221.97309 388.856334 
L 223.66025 385.288525 
L 225.34741 382.284054 
L 237.157529 364.632787 
L 238.844689 362.379434 
L 242.219008 358.154396 
L 245.593328 353.835469 
L 247.280488 351.394337 
L 248.967648 349.798212 
L 252.341967 345.197615 
L 255.716287 342.474814 
L 257.403447 340.690909 
L 259.090607 339.376453 
L 260.777767 337.686438 
L 272.587886 324.447988 
L 274.275045 323.509091 
L 275.962205 322.288525 
L 277.649365 320.786289 
L 279.336525 318.439046 
L 281.023685 316.749031 
L 282.710845 314.683458 
L 284.398004 313.650671 
L 286.085164 312.430104 
L 287.772324 311.585097 
L 289.459484 309.895082 
L 291.146644 308.486736 
L 292.833804 307.735618 
L 294.520964 305.857824 
L 296.208123 305.200596 
L 299.582443 301.726677 
L 301.269603 300.975559 
L 302.956763 299.567213 
L 304.643923 299.003875 
L 306.331082 297.783308 
L 309.705402 295.811624 
L 311.392562 294.497168 
L 313.079722 292.994933 
L 316.454042 290.5538 
L 318.141201 289.708793 
L 319.828361 288.488227 
L 323.202681 286.516542 
L 324.889841 286.422653 
L 326.577001 285.014307 
L 331.63848 281.822057 
L 333.32564 281.634277 
L 335.0128 280.69538 
L 336.69996 279.380924 
L 340.074279 276.094784 
L 341.761439 275.343666 
L 343.448599 274.21699 
L 345.135759 274.21699 
L 346.822919 273.465872 
L 348.510079 273.090313 
L 350.197238 271.681967 
L 353.571558 270.273621 
L 355.258718 269.240835 
L 356.945878 267.644709 
L 360.320198 265.485246 
L 363.694517 264.0769 
L 365.381677 262.950224 
L 370.443157 261.072429 
L 372.130316 260.039642 
L 373.817476 258.255738 
L 375.504636 257.41073 
L 378.878956 256.190164 
L 380.566116 255.251267 
L 383.940435 252.997914 
L 385.627595 251.589568 
L 387.314755 250.93234 
L 390.689075 248.397317 
L 392.376235 247.740089 
L 394.063394 246.613413 
L 395.750554 246.050075 
L 397.437714 245.768405 
L 399.124874 244.829508 
L 400.812034 244.547839 
L 404.186354 243.327273 
L 405.873513 242.576155 
L 407.560673 241.355589 
L 409.247833 240.416692 
L 415.996472 237.50611 
L 417.683632 236.473323 
L 421.057952 234.689419 
L 422.745112 233.562742 
L 424.432272 233.093294 
L 426.119432 232.342176 
L 429.493751 230.558271 
L 437.92955 227.178241 
L 439.61671 226.802683 
L 441.30387 225.957675 
L 442.99103 224.830999 
L 444.67819 224.079881 
L 446.36535 223.610432 
L 448.05251 222.389866 
L 449.739669 221.450969 
L 451.426829 221.07541 
L 453.113989 220.324292 
L 454.801149 220.042623 
L 456.488309 218.822057 
L 459.862629 218.164829 
L 461.549788 217.319821 
L 463.236948 216.756483 
L 464.924108 216.380924 
L 466.611268 215.723696 
L 468.298428 215.348137 
L 469.985588 213.939791 
L 473.359907 212.719225 
L 475.047067 212.343666 
L 478.421387 210.465872 
L 483.482866 209.245306 
L 488.544346 207.273621 
L 490.231506 206.991952 
L 491.918666 205.865276 
L 493.605825 205.489717 
L 495.292985 204.832489 
L 496.980145 204.36304 
L 498.667305 203.611923 
L 500.354465 203.330253 
L 502.041625 202.766915 
L 503.728785 202.673025 
L 510.477424 201.0769 
L 512.164584 200.513562 
L 513.851744 199.762444 
L 515.538903 199.574665 
L 517.226063 199.199106 
L 518.913223 199.105216 
L 520.600383 198.354098 
L 522.287543 197.415201 
L 525.661863 196.570194 
L 529.036182 194.880179 
L 532.410502 193.847392 
L 534.097662 193.096274 
L 535.784822 192.814605 
L 537.471981 192.157377 
L 539.159141 191.781818 
L 540.846301 191.21848 
L 544.220621 189.810134 
L 552.65642 187.93234 
L 554.34358 187.275112 
L 556.03074 187.087332 
L 559.405059 186.148435 
L 561.092219 185.960656 
L 562.779379 184.55231 
L 564.466539 183.895082 
L 566.153699 182.956185 
L 567.840859 182.298957 
L 572.902338 181.453949 
L 576.276658 180.139493 
L 581.338137 178.918927 
L 583.025297 178.261699 
L 588.086777 176.853353 
L 591.461097 176.665574 
L 593.148256 176.102235 
L 594.835416 175.820566 
L 596.522576 175.257228 
L 598.209736 174.975559 
L 601.584056 174.69389 
L 603.271215 174.50611 
L 604.958375 174.130551 
L 608.332695 173.848882 
L 610.019855 172.909985 
L 611.707015 172.816095 
L 615.081334 172.064978 
L 616.768494 171.501639 
L 620.142814 170.938301 
L 621.829974 170.844411 
L 628.578613 169.436066 
L 630.265773 169.436066 
L 631.952933 168.966617 
L 633.640093 168.872727 
L 637.014412 168.403279 
L 638.701572 167.746051 
L 645.450212 167.088823 
L 648.824531 165.586587 
L 650.511691 165.492697 
L 652.198851 165.023249 
L 653.886011 164.272131 
L 655.573171 163.708793 
L 657.260331 163.427124 
L 658.94749 162.957675 
L 665.69613 160.422653 
L 669.07045 159.671535 
L 672.444769 159.483756 
L 675.819089 158.07541 
L 679.193409 157.324292 
L 680.880568 157.324292 
L 684.254888 156.197615 
L 685.942048 155.915946 
L 687.629208 154.883159 
L 691.003528 154.038152 
L 697.752167 151.50313 
L 699.439327 151.31535 
L 702.813646 150.658122 
L 709.562286 149.813115 
L 712.936606 149.155887 
L 716.310925 148.02921 
L 717.998085 148.02921 
L 719.685245 147.278092 
L 724.746724 146.620864 
L 729.808204 145.494188 
L 731.495364 145.400298 
L 739.931163 143.428614 
L 741.618323 142.677496 
L 743.305483 142.489717 
L 744.992643 142.489717 
L 756.802762 139.954694 
L 758.489921 139.297466 
L 763.551401 138.26468 
L 765.238561 138.0769 
L 766.925721 137.607452 
L 768.61288 137.513562 
L 775.36152 136.480775 
L 778.73584 136.199106 
L 780.422999 136.105216 
L 782.110159 135.635768 
L 785.484479 135.166319 
L 787.171639 135.072429 
L 788.858799 134.79076 
L 790.545958 133.945753 
L 792.233118 133.664083 
L 793.920278 133.194635 
L 797.294598 132.725186 
L 798.981758 132.443517 
L 804.043237 132.161848 
L 805.730397 131.786289 
L 807.417557 131.035171 
L 814.166196 130.190164 
L 820.914836 127.842921 
L 825.976315 127.279583 
L 827.663475 127.279583 
L 829.350635 127.091803 
L 831.037795 126.434575 
L 842.847914 125.02623 
L 844.535074 124.650671 
L 846.222233 124.462891 
L 851.283713 123.430104 
L 854.658033 123.148435 
L 859.719512 122.397317 
L 861.406672 121.833979 
L 873.216791 120.613413 
L 874.903951 120.050075 
L 876.591111 119.674516 
L 879.96543 119.486736 
L 883.33975 118.923398 
L 886.71407 118.641729 
L 888.40123 118.453949 
L 890.088389 117.608942 
L 891.775549 117.608942 
L 896.837029 117.045604 
L 898.524189 116.576155 
L 900.211349 115.543368 
L 903.585668 115.355589 
L 906.959988 114.88614 
L 908.647148 114.79225 
L 910.334308 114.322802 
L 912.021467 114.322802 
L 913.708627 114.041133 
L 917.082947 113.759463 
L 920.457267 113.196125 
L 923.831586 112.914456 
L 925.518746 112.632787 
L 927.205906 112.538897 
L 928.893066 112.163338 
L 930.580226 111.6 
L 933.954545 111.6 
L 933.954545 111.6 
" clip-path="url(#p80e4ea704f)" style="fill: none; stroke: #008000; stroke-width: 4; stroke-linecap: round"/>
   </g>
   <g id="patch_3">
    <path d="M 135 640.8 
L 135 86.4 
" style="fill: none; stroke: #1a1a1a; stroke-width: 1.25; stroke-linejoin: miter; stroke-linecap: square"/>
   </g>
   <g id="patch_4">
    <path d="M 135 640.8 
L 972 640.8 
" style="fill: none; stroke: #1a1a1a; stroke-width: 1.25; stroke-linejoin: miter; stroke-linecap: square"/>
   </g>
   <g id="matplotlib.axis_1">
    <g id="xtick_1">
     <g id="line2d_2">
      <defs>
       <path id="m18eefb6241" d="M 0 0 
L 0 6 
" style="stroke: #1a1a1a; stroke-width: 1.25"/>
      </defs>
      <g>
       <use xlink:href="#m18eefb6241" x="173.045455" y="640.8" style="fill: #1a1a1a; stroke: #1a1a1a; stroke-width: 1.25"/>
      </g>
     </g>
     <g id="text_1">
      <!-- 0 -->
      <g style="fill: #1a1a1a" transform="translate(166.717447 663.203516) scale(0.165 -0.165)">
       <defs>
        <path id="FuzzyBubbles-Regular-30" d="M 2298 32 
Q 1875 32 1481 201 
Q 1088 371 797 681 
Q 506 992 378 1414 
Q 352 1530 349 1706 
Q 346 1882 346 1984 
Q 346 2752 653 3293 
Q 960 3834 1520 4118 
Q 2080 4403 2842 4403 
Q 3162 4403 3488 4313 
Q 3814 4224 3974 3994 
Q 4256 3603 4406 3203 
Q 4557 2803 4557 2349 
Q 4557 1664 4278 1142 
Q 4000 621 3494 326 
Q 2989 32 2298 32 
z
M 2406 467 
Q 2669 467 2953 588 
Q 3238 710 3491 918 
Q 3744 1126 3901 1395 
Q 4058 1664 4058 1952 
L 4058 2739 
Q 4058 2739 4038 2803 
Q 4019 2867 3993 2937 
Q 3968 3008 3942 3027 
Q 3936 3040 3917 3085 
Q 3898 3130 3878 3174 
L 3770 3392 
Q 3738 3462 3658 3510 
Q 3578 3558 3488 3590 
L 3366 3629 
Q 3341 3642 3331 3651 
Q 3322 3661 3309 3667 
L 3168 3782 
Q 3142 3808 3107 3830 
Q 3072 3853 3040 3878 
Q 2963 3923 2876 3945 
Q 2790 3968 2669 3968 
Q 2285 3968 1949 3814 
Q 1613 3661 1360 3392 
Q 1107 3123 963 2787 
Q 819 2451 819 2086 
Q 819 1773 940 1481 
Q 1062 1190 1276 960 
Q 1491 730 1782 598 
Q 2074 467 2406 467 
z
" transform="scale(0.015625)"/>
       </defs>
       <use xlink:href="#FuzzyBubbles-Regular-30"/>
      </g>
     </g>
    </g>
    <g id="xtick_2">
     <g id="line2d_3">
      <g>
       <use xlink:href="#m18eefb6241" x="341.761439" y="640.8" style="fill: #1a1a1a; stroke: #1a1a1a; stroke-width: 1.25"/>
      </g>
     </g>
     <g id="text_2">
      <!-- 100 -->
      <g style="fill: #1a1a1a" transform="translate(325.426439 663.203516) scale(0.165 -0.165)">
       <defs>
        <path id="FuzzyBubbles-Regular-31" d="M 429 64 
Q 365 64 326 99 
Q 288 134 288 269 
Q 288 346 352 390 
Q 416 435 576 467 
Q 653 480 726 489 
Q 800 499 858 506 
Q 986 525 1046 582 
Q 1107 640 1107 691 
L 1286 3085 
L 1286 3392 
Q 1133 3392 1075 3382 
Q 1018 3373 986 3360 
Q 960 3354 934 3338 
Q 909 3322 877 3309 
Q 826 3283 787 3270 
Q 749 3258 710 3258 
Q 627 3258 566 3312 
Q 506 3366 506 3424 
Q 506 3584 685 3744 
Q 723 3782 771 3817 
Q 819 3853 870 3891 
Q 922 3923 970 3961 
Q 1018 4000 1056 4032 
Q 1107 4070 1155 4115 
Q 1203 4160 1242 4198 
Q 1280 4237 1318 4275 
Q 1357 4314 1395 4346 
Q 1523 4467 1677 4467 
Q 1702 4467 1734 4470 
Q 1766 4474 1792 4474 
Q 1830 4474 1859 4461 
Q 1888 4448 1888 4397 
L 1888 3974 
L 1638 1818 
L 1638 704 
Q 1901 704 2064 736 
Q 2227 768 2387 768 
Q 2509 768 2553 729 
Q 2598 691 2598 602 
Q 2598 486 2547 435 
Q 2496 384 2368 371 
Q 2285 358 2102 329 
Q 1920 301 1689 259 
Q 1459 218 1225 176 
Q 992 134 803 105 
Q 614 77 525 64 
L 429 64 
z
" transform="scale(0.015625)"/>
       </defs>
       <use xlink:href="#FuzzyBubbles-Regular-31"/>
       <use xlink:href="#FuzzyBubbles-Regular-30" x="44.599991"/>
       <use xlink:href="#FuzzyBubbles-Regular-30" x="121.299973"/>
      </g>
     </g>
    </g>
    <g id="xtick_3">
     <g id="line2d_4">
      <g>
       <use xlink:href="#m18eefb6241" x="510.477424" y="640.8" style="fill: #1a1a1a; stroke: #1a1a1a; stroke-width: 1.25"/>
      </g>
     </g>
     <g id="text_3">
      <!-- 200 -->
      <g style="fill: #1a1a1a" transform="translate(493.044143 663.203516) scale(0.165 -0.165)">
       <defs>
        <path id="FuzzyBubbles-Regular-32" d="M 582 224 
Q 435 224 390 269 
Q 346 314 346 454 
Q 346 794 547 1107 
Q 749 1421 1024 1670 
Q 1082 1709 1226 1814 
Q 1370 1920 1533 2041 
Q 1696 2163 1833 2262 
Q 1971 2362 2022 2400 
Q 2266 2586 2448 2829 
Q 2630 3072 2630 3418 
Q 2630 3603 2540 3766 
Q 2451 3930 2294 4029 
Q 2138 4128 1939 4128 
Q 1613 4128 1405 4006 
Q 1197 3885 1043 3757 
Q 1011 3725 972 3696 
Q 934 3667 902 3635 
Q 819 3565 729 3510 
Q 640 3456 518 3456 
Q 486 3456 451 3497 
Q 416 3539 416 3629 
Q 416 3827 579 3996 
Q 742 4166 992 4294 
Q 1242 4422 1507 4492 
Q 1773 4563 1971 4563 
Q 2310 4563 2576 4403 
Q 2842 4243 2995 3974 
Q 3149 3706 3149 3386 
Q 3149 3027 2941 2697 
Q 2733 2368 2445 2144 
L 1216 1229 
L 742 762 
L 1178 762 
Q 1485 762 1779 813 
Q 2074 864 2387 864 
Q 2445 864 2525 864 
Q 2605 864 2688 858 
Q 2778 858 2867 848 
Q 2957 838 3040 826 
Q 3386 755 3386 557 
Q 3386 454 3334 406 
Q 3283 358 3149 358 
Q 2938 358 2730 393 
Q 2522 429 2285 429 
L 1990 429 
L 742 224 
L 582 224 
z
" transform="scale(0.015625)"/>
       </defs>
       <use xlink:href="#FuzzyBubbles-Regular-32"/>
       <use xlink:href="#FuzzyBubbles-Regular-30" x="57.899994"/>
       <use xlink:href="#FuzzyBubbles-Regular-30" x="134.599976"/>
      </g>
     </g>
    </g>
    <g id="xtick_4">
     <g id="line2d_5">
      <g>
       <use xlink:href="#m18eefb6241" x="679.193409" y="640.8" style="fill: #1a1a1a; stroke: #1a1a1a; stroke-width: 1.25"/>
      </g>
     </g>
     <g id="text_4">
      <!-- 300 -->
      <g style="fill: #1a1a1a" transform="translate(661.636377 663.203516) scale(0.165 -0.165)">
       <defs>
        <path id="FuzzyBubbles-Regular-33" d="M 1594 64 
Q 1459 64 1241 102 
Q 1024 141 803 217 
Q 582 294 435 412 
Q 288 531 288 698 
Q 288 755 349 809 
Q 410 864 499 864 
Q 550 864 646 826 
L 858 717 
Q 973 653 1126 592 
Q 1280 531 1459 531 
Q 1677 531 1929 582 
Q 2182 634 2412 746 
Q 2643 858 2790 1037 
Q 2938 1216 2938 1472 
Q 2938 1741 2781 1923 
Q 2624 2106 2381 2211 
Q 2138 2317 1875 2371 
Q 1613 2426 1408 2438 
Q 1357 2483 1357 2605 
Q 1357 2669 1408 2713 
Q 1459 2758 1594 2797 
Q 1664 2816 1734 2829 
Q 1805 2842 1869 2854 
Q 1939 2867 2006 2880 
Q 2074 2893 2131 2918 
Q 2278 2976 2441 3088 
Q 2605 3200 2720 3347 
Q 2835 3494 2835 3654 
Q 2835 3891 2710 4038 
Q 2586 4186 2400 4253 
Q 2214 4320 2042 4320 
Q 1805 4320 1625 4237 
Q 1446 4154 1312 4064 
Q 1248 4019 1190 3977 
Q 1133 3936 1069 3904 
Q 966 3846 870 3846 
Q 768 3846 717 3891 
Q 666 3936 666 3981 
Q 666 4134 778 4259 
Q 890 4384 1069 4477 
Q 1248 4570 1446 4630 
Q 1645 4691 1824 4723 
Q 2003 4755 2112 4755 
Q 2432 4755 2697 4624 
Q 2963 4493 3123 4265 
Q 3283 4038 3283 3750 
Q 3283 3456 3155 3232 
Q 3027 3008 2803 2765 
L 2803 2579 
Q 3117 2330 3286 2083 
Q 3456 1837 3456 1504 
Q 3456 1171 3289 905 
Q 3123 640 2851 451 
Q 2579 262 2249 163 
Q 1920 64 1594 64 
z
" transform="scale(0.015625)"/>
       </defs>
       <use xlink:href="#FuzzyBubbles-Regular-33"/>
       <use xlink:href="#FuzzyBubbles-Regular-30" x="59.399994"/>
       <use xlink:href="#FuzzyBubbles-Regular-30" x="136.099976"/>
      </g>
     </g>
    </g>
    <g id="xtick_5">
     <g id="line2d_6">
      <g>
       <use xlink:href="#m18eefb6241" x="847.909393" y="640.8" style="fill: #1a1a1a; stroke: #1a1a1a; stroke-width: 1.25"/>
      </g>
     </g>
     <g id="text_5">
      <!-- 400 -->
      <g style="fill: #1a1a1a" transform="translate(830.352362 663.203516) scale(0.165 -0.165)">
       <defs>
        <path id="FuzzyBubbles-Regular-34" d="M 2662 -96 
Q 2547 -96 2486 -35 
Q 2426 26 2394 147 
Q 2374 211 2368 281 
Q 2362 352 2355 429 
L 2355 710 
Q 2355 934 2374 1168 
Q 2394 1402 2394 1664 
L 2272 1779 
L 2074 1779 
Q 1818 1779 1562 1763 
Q 1306 1747 1050 1747 
L 595 1747 
Q 390 1837 307 1949 
Q 224 2061 224 2285 
Q 224 2432 253 2592 
Q 282 2752 346 2854 
L 966 4173 
Q 1043 4326 1216 4326 
Q 1286 4326 1356 4259 
Q 1427 4192 1427 4096 
Q 1427 4058 1424 4042 
Q 1421 4026 1414 4013 
Q 1402 3987 1382 3948 
Q 1363 3910 1331 3846 
Q 1248 3661 1139 3475 
Q 1030 3290 941 3104 
Q 838 2906 771 2678 
Q 704 2451 704 2112 
L 1318 2112 
Q 1338 2112 1478 2121 
Q 1619 2131 1776 2147 
Q 1933 2163 2010 2182 
L 1990 2182 
Q 2035 2189 2153 2227 
Q 2272 2266 2377 2314 
Q 2483 2362 2490 2400 
L 2835 4339 
Q 2854 4448 2899 4489 
Q 2944 4531 3040 4531 
Q 3168 4531 3225 4483 
Q 3283 4435 3283 4365 
Q 3283 4320 3270 4269 
Q 3258 4218 3232 4154 
Q 3206 4083 3180 4006 
Q 3155 3930 3142 3846 
Q 3130 3770 3107 3594 
Q 3085 3418 3059 3210 
Q 3034 3002 3011 2822 
Q 2989 2643 2976 2566 
L 2976 2522 
Q 2976 2426 3033 2374 
Q 3091 2323 3130 2304 
Q 3168 2285 3219 2269 
Q 3270 2253 3315 2234 
Q 3488 2170 3488 2048 
Q 3488 1901 3360 1840 
Q 3232 1779 2957 1779 
L 2874 1613 
L 2797 -19 
Q 2797 -32 2761 -64 
Q 2726 -96 2662 -96 
z
" transform="scale(0.015625)"/>
       </defs>
       <use xlink:href="#FuzzyBubbles-Regular-34"/>
       <use xlink:href="#FuzzyBubbles-Regular-30" x="59.399994"/>
       <use xlink:href="#FuzzyBubbles-Regular-30" x="136.099976"/>
      </g>
     </g>
    </g>
    <g id="text_6">
     <!-- Number of images processed (x1000) -->
     <g style="fill: #1a1a1a" transform="translate(381.427031 687.193594) scale(0.18 -0.18)">
      <defs>
       <path id="FuzzyBubbles-Regular-4e" d="M 550 32 
Q 390 32 368 147 
Q 346 262 346 403 
L 346 506 
L 358 595 
Q 365 634 377 685 
Q 390 736 397 781 
Q 410 877 426 963 
Q 442 1050 448 1094 
Q 461 1190 483 1401 
Q 506 1613 528 1859 
Q 550 2106 566 2310 
Q 582 2515 582 2592 
Q 582 2630 588 2787 
Q 595 2944 601 3133 
Q 608 3322 614 3475 
Q 621 3629 621 3667 
Q 621 3763 633 3881 
Q 646 4000 704 4089 
Q 762 4179 890 4179 
Q 979 4179 1078 4067 
Q 1178 3955 1222 3885 
Q 1248 3840 1270 3805 
Q 1293 3770 1312 3738 
Q 1517 3405 1757 3040 
Q 1997 2675 2221 2304 
Q 2330 2125 2499 1885 
Q 2669 1645 2845 1411 
Q 3021 1178 3155 1011 
Q 3270 864 3347 864 
Q 3418 864 3456 1037 
Q 3546 1498 3603 2077 
Q 3661 2656 3661 3200 
Q 3661 3437 3648 3651 
Q 3635 3866 3610 4045 
Q 3597 4154 3670 4214 
Q 3744 4275 3846 4275 
Q 3968 4275 4016 4243 
Q 4064 4211 4083 4134 
Q 4122 3962 4134 3712 
Q 4147 3462 4147 3238 
Q 4147 2362 4089 1699 
Q 4032 1037 3865 669 
Q 3699 301 3373 301 
Q 3194 301 3021 425 
Q 2848 550 2697 729 
Q 2547 909 2432 1082 
Q 2074 1619 1846 1974 
Q 1619 2330 1481 2541 
Q 1344 2752 1273 2857 
Q 1203 2963 1168 2995 
Q 1133 3027 1094 3027 
Q 1094 2925 1084 2710 
Q 1075 2496 1056 2214 
Q 1037 1933 1011 1638 
Q 986 1344 954 1078 
Q 922 813 890 634 
Q 870 538 838 394 
Q 806 250 739 141 
Q 672 32 550 32 
z
" transform="scale(0.015625)"/>
       <path id="FuzzyBubbles-Regular-75" d="M 1235 64 
Q 909 64 723 246 
Q 538 429 458 720 
Q 378 1011 378 1338 
Q 378 1562 384 1699 
Q 390 1837 412 1984 
Q 435 2131 480 2387 
Q 506 2515 531 2646 
Q 557 2778 602 2899 
Q 653 3046 713 3107 
Q 774 3168 819 3168 
Q 941 3168 1001 3101 
Q 1062 3034 1062 2931 
Q 1062 2790 1024 2668 
Q 986 2547 960 2438 
Q 915 2150 883 1980 
Q 851 1811 835 1673 
Q 819 1536 819 1338 
Q 819 1242 835 1107 
Q 851 973 896 845 
Q 941 717 1030 630 
Q 1120 544 1267 544 
Q 1421 544 1558 656 
Q 1696 768 1754 838 
Q 2189 1389 2528 1913 
Q 2867 2438 3200 3059 
Q 3245 3130 3273 3149 
Q 3302 3168 3347 3168 
Q 3494 3168 3552 3117 
Q 3610 3066 3610 2944 
Q 3610 2867 3590 2758 
Q 3494 2278 3494 1805 
Q 3494 1485 3552 1209 
Q 3610 934 3738 755 
Q 3834 634 3834 544 
Q 3834 435 3773 371 
Q 3712 307 3622 307 
Q 3379 307 3238 691 
Q 3194 826 3139 1034 
Q 3085 1242 3040 1453 
Q 2995 1664 2982 1805 
Q 2899 1670 2832 1539 
Q 2765 1408 2662 1261 
Q 2592 1158 2496 1027 
Q 2400 896 2291 755 
Q 2067 480 1798 272 
Q 1530 64 1235 64 
z
" transform="scale(0.015625)"/>
       <path id="FuzzyBubbles-Regular-6d" d="M 742 64 
Q 640 64 576 125 
Q 512 186 512 275 
Q 512 499 528 716 
Q 544 934 544 1158 
L 544 1613 
Q 544 1798 537 1987 
Q 531 2176 512 2406 
Q 493 2586 435 2781 
Q 378 2976 378 3117 
Q 378 3392 544 3392 
Q 736 3392 835 3017 
Q 934 2643 1024 1946 
Q 1037 1862 1056 1827 
Q 1075 1792 1094 1792 
Q 1133 1792 1168 1840 
Q 1203 1888 1222 1920 
Q 1274 2016 1341 2144 
Q 1408 2272 1459 2362 
Q 1510 2451 1571 2537 
Q 1632 2624 1696 2701 
Q 1824 2861 1971 2953 
Q 2118 3046 2291 3046 
Q 2445 3046 2528 2963 
Q 2611 2880 2675 2746 
Q 2714 2669 2742 2595 
Q 2771 2522 2797 2451 
Q 2829 2381 2880 2224 
Q 2931 2067 3008 1965 
L 3200 2240 
Q 3315 2406 3427 2569 
Q 3539 2733 3680 2874 
Q 3814 3014 3961 3100 
Q 4109 3187 4269 3187 
Q 4486 3187 4633 3008 
Q 4781 2829 4857 2566 
Q 4934 2304 4941 2054 
L 4979 576 
Q 4986 474 4934 336 
Q 4883 198 4736 198 
Q 4653 198 4595 265 
Q 4538 333 4538 403 
L 4538 1677 
Q 4538 1805 4518 1974 
Q 4499 2144 4457 2304 
Q 4416 2464 4345 2569 
Q 4275 2675 4166 2675 
Q 3994 2675 3853 2512 
Q 3712 2349 3593 2077 
Q 3475 1805 3354 1478 
Q 3232 1062 3145 921 
Q 3059 781 2963 781 
Q 2880 781 2829 819 
Q 2778 858 2739 922 
Q 2694 998 2668 1104 
Q 2643 1210 2624 1293 
L 2502 1856 
Q 2477 1971 2448 2137 
Q 2419 2304 2358 2429 
Q 2298 2554 2176 2554 
Q 2093 2554 2000 2454 
Q 1907 2355 1814 2208 
Q 1722 2061 1645 1907 
Q 1568 1754 1517 1632 
Q 1466 1510 1453 1478 
Q 1440 1440 1376 1280 
Q 1312 1120 1229 918 
Q 1146 717 1078 547 
Q 1011 378 992 326 
Q 928 179 877 121 
Q 826 64 742 64 
z
" transform="scale(0.015625)"/>
       <path id="FuzzyBubbles-Regular-62" d="M 1709 64 
Q 1478 64 1273 131 
Q 1069 198 928 269 
Q 832 154 733 125 
Q 634 96 550 96 
Q 378 96 378 365 
Q 378 506 387 605 
Q 397 704 442 870 
Q 550 1619 611 2416 
Q 672 3213 672 3994 
Q 672 4397 653 4787 
Q 653 4851 697 4864 
Q 742 4877 787 4877 
Q 934 4877 1008 4841 
Q 1082 4806 1094 4672 
L 1094 4320 
Q 1094 3891 1078 3465 
Q 1062 3040 1062 2541 
Q 1062 2477 1072 2419 
Q 1082 2362 1114 2362 
Q 1139 2362 1184 2400 
Q 1229 2438 1299 2541 
Q 1581 2867 1933 3088 
Q 2285 3309 2797 3309 
Q 2963 3309 3145 3267 
Q 3328 3226 3488 3107 
Q 3648 2989 3747 2755 
Q 3846 2522 3846 2138 
Q 3846 1690 3680 1309 
Q 3514 928 3219 649 
Q 2925 371 2537 217 
Q 2150 64 1709 64 
z
M 1709 493 
Q 2010 493 2310 633 
Q 2611 774 2864 1011 
Q 3117 1248 3270 1539 
Q 3424 1830 3424 2138 
Q 3424 2317 3337 2483 
Q 3251 2650 3094 2762 
Q 2938 2874 2733 2874 
Q 2528 2874 2291 2746 
Q 2054 2618 1824 2413 
Q 1594 2208 1405 1961 
Q 1216 1715 1104 1472 
Q 992 1229 992 1030 
Q 992 883 1072 780 
Q 1152 678 1273 614 
Q 1395 550 1513 521 
Q 1632 493 1709 493 
z
" transform="scale(0.015625)"/>
       <path id="FuzzyBubbles-Regular-65" d="M 2054 -96 
Q 1568 -96 1174 48 
Q 781 192 550 502 
Q 320 813 320 1306 
Q 320 1696 451 2067 
Q 582 2438 825 2739 
Q 1069 3040 1408 3216 
Q 1747 3392 2163 3392 
Q 2451 3392 2684 3283 
Q 2918 3174 3059 2976 
Q 3200 2778 3200 2502 
Q 3200 2208 3075 1942 
Q 2950 1677 2739 1472 
Q 2528 1267 2262 1148 
Q 1997 1030 1709 1030 
Q 1459 1030 1241 1072 
Q 1024 1114 838 1203 
Q 838 960 953 790 
Q 1069 621 1248 515 
Q 1427 410 1622 362 
Q 1818 314 1984 314 
Q 2118 314 2252 330 
Q 2387 346 2547 346 
Q 2784 346 2784 141 
Q 2784 -19 2560 -64 
Q 2438 -90 2310 -93 
Q 2182 -96 2054 -96 
z
M 1709 1542 
Q 1933 1542 2176 1632 
Q 2419 1722 2588 1914 
Q 2758 2106 2758 2400 
Q 2758 2662 2595 2825 
Q 2432 2989 2163 2989 
Q 1920 2989 1686 2877 
Q 1453 2765 1261 2576 
Q 1069 2387 953 2150 
Q 838 1914 838 1664 
Q 986 1587 1210 1564 
Q 1434 1542 1709 1542 
z
" transform="scale(0.015625)"/>
       <path id="FuzzyBubbles-Regular-72" d="M 557 -64 
Q 486 -64 451 0 
Q 416 64 403 147 
Q 390 230 378 288 
L 378 794 
Q 378 1178 413 1581 
Q 448 1984 448 2368 
Q 448 2554 425 2739 
Q 403 2925 378 3053 
Q 371 3085 368 3110 
Q 365 3136 365 3162 
Q 365 3245 416 3270 
Q 467 3296 589 3296 
Q 736 3296 806 3168 
Q 877 3040 912 2870 
Q 947 2701 979 2566 
Q 1165 2790 1382 2892 
Q 1600 2995 1747 3072 
Q 1888 3142 2032 3184 
Q 2176 3226 2355 3226 
Q 2534 3226 2691 3126 
Q 2848 3027 2848 2912 
Q 2848 2778 2765 2714 
Q 2682 2650 2573 2650 
Q 2541 2650 2512 2659 
Q 2483 2669 2451 2675 
Q 2406 2694 2352 2707 
Q 2298 2720 2246 2720 
Q 2048 2720 1862 2646 
Q 1677 2573 1549 2502 
Q 1325 2381 1200 2230 
Q 1075 2080 992 1952 
Q 947 1709 934 1478 
Q 922 1248 915 1120 
Q 909 986 902 838 
Q 896 691 883 544 
Q 870 390 844 249 
Q 819 109 755 22 
Q 691 -64 557 -64 
z
" transform="scale(0.015625)"/>
       <path id="FuzzyBubbles-Regular-20" transform="scale(0.015625)"/>
       <path id="FuzzyBubbles-Regular-6f" d="M 2054 0 
Q 1594 0 1197 201 
Q 800 403 560 764 
Q 320 1126 320 1606 
Q 320 1933 457 2214 
Q 595 2496 812 2752 
Q 1030 3008 1267 3251 
Q 1376 3360 1517 3408 
Q 1658 3456 1818 3456 
Q 2259 3456 2649 3363 
Q 3040 3270 3344 3065 
Q 3648 2861 3821 2534 
Q 3994 2208 3994 1741 
Q 3994 1357 3830 1037 
Q 3667 717 3388 483 
Q 3110 250 2764 125 
Q 2419 0 2054 0 
z
M 1914 474 
Q 2208 474 2499 557 
Q 2790 640 3027 809 
Q 3264 979 3408 1235 
Q 3552 1491 3552 1843 
Q 3552 2163 3414 2390 
Q 3277 2618 3053 2762 
Q 2829 2906 2566 2976 
Q 2304 3046 2054 3046 
Q 1952 3046 1827 3030 
Q 1702 3014 1587 2906 
Q 1446 2771 1302 2633 
Q 1158 2496 1037 2330 
Q 915 2170 838 1971 
Q 762 1773 762 1542 
Q 762 1171 918 934 
Q 1075 698 1337 586 
Q 1600 474 1914 474 
z
" transform="scale(0.015625)"/>
       <path id="FuzzyBubbles-Regular-66" d="M 1190 -256 
Q 1107 -256 1030 -176 
Q 954 -96 954 6 
L 954 2547 
L 774 2547 
Q 698 2547 621 2531 
Q 544 2515 461 2515 
Q 224 2515 224 2739 
Q 224 2829 352 2883 
Q 480 2938 678 2973 
Q 877 3008 1075 3040 
Q 1082 3546 1229 3955 
Q 1376 4365 1670 4605 
Q 1965 4845 2406 4845 
Q 2483 4845 2617 4835 
Q 2752 4826 2893 4794 
Q 3034 4762 3133 4694 
Q 3232 4627 3232 4512 
Q 3232 4410 3161 4342 
Q 3091 4275 3027 4275 
Q 2957 4275 2889 4294 
Q 2822 4314 2739 4339 
Q 2650 4371 2560 4390 
Q 2470 4410 2368 4410 
Q 2131 4410 1974 4288 
Q 1818 4166 1725 3968 
Q 1632 3770 1593 3536 
Q 1555 3302 1555 3078 
L 2445 3078 
Q 2490 3078 2550 3011 
Q 2611 2944 2611 2874 
Q 2611 2752 2486 2723 
Q 2362 2694 2253 2682 
Q 2208 2682 2102 2666 
Q 1997 2650 1869 2634 
Q 1741 2618 1635 2605 
Q 1530 2592 1485 2592 
Q 1472 2419 1459 2140 
Q 1446 1862 1433 1520 
Q 1421 1178 1411 819 
Q 1402 461 1402 122 
Q 1402 0 1370 -128 
Q 1338 -256 1190 -256 
z
" transform="scale(0.015625)"/>
       <path id="FuzzyBubbles-Regular-69" d="M 1062 4186 
Q 851 4186 726 4285 
Q 602 4384 602 4544 
Q 602 4691 742 4771 
Q 883 4851 1101 4851 
Q 1318 4851 1440 4752 
Q 1562 4653 1562 4480 
Q 1562 4339 1424 4262 
Q 1286 4186 1062 4186 
z
M 730 96 
Q 640 96 592 211 
Q 544 326 528 505 
Q 512 685 512 877 
Q 512 966 515 1059 
Q 518 1152 518 1235 
Q 518 1261 537 1405 
Q 557 1549 582 1741 
Q 608 1933 637 2121 
Q 666 2310 685 2419 
Q 704 2502 729 2640 
Q 755 2778 822 2890 
Q 890 3002 1018 3002 
Q 1165 3002 1225 2947 
Q 1286 2893 1286 2778 
Q 1286 2746 1283 2714 
Q 1280 2682 1274 2643 
Q 1242 2438 1194 2134 
Q 1146 1830 1110 1500 
Q 1075 1171 1088 877 
Q 1094 806 1104 713 
Q 1114 621 1114 531 
Q 1114 365 1043 230 
Q 973 96 730 96 
z
" transform="scale(0.015625)"/>
       <path id="FuzzyBubbles-Regular-61" d="M 1485 -64 
Q 1197 -64 950 64 
Q 704 192 537 409 
Q 371 627 320 896 
L 320 1235 
Q 320 1600 454 1971 
Q 589 2342 829 2656 
Q 1069 2970 1398 3158 
Q 1728 3347 2112 3347 
Q 2355 3347 2582 3264 
Q 2810 3181 2989 3072 
Q 3027 3341 3084 3443 
Q 3142 3546 3283 3546 
Q 3392 3546 3437 3478 
Q 3482 3411 3482 3245 
Q 3482 2861 3466 2493 
Q 3450 2125 3450 1741 
Q 3450 1434 3485 1107 
Q 3520 781 3520 480 
Q 3520 384 3523 288 
Q 3526 192 3491 131 
Q 3456 70 3347 70 
Q 3194 70 3120 214 
Q 3046 358 3020 563 
Q 2995 768 2970 947 
Q 2906 774 2755 608 
Q 2605 442 2454 323 
Q 2304 205 2224 157 
Q 2144 109 2221 166 
Q 2080 64 1872 0 
Q 1664 -64 1485 -64 
z
M 1421 339 
Q 1709 339 1958 505 
Q 2208 672 2397 934 
Q 2586 1197 2691 1485 
Q 2797 1773 2797 2016 
Q 2797 2138 2768 2294 
Q 2739 2451 2662 2598 
Q 2586 2746 2454 2842 
Q 2323 2938 2112 2938 
Q 1837 2938 1587 2762 
Q 1338 2586 1142 2314 
Q 947 2042 838 1754 
Q 730 1466 730 1235 
Q 730 1062 790 851 
Q 851 640 1001 489 
Q 1152 339 1421 339 
z
" transform="scale(0.015625)"/>
       <path id="FuzzyBubbles-Regular-67" d="M 1882 -1805 
Q 1658 -1805 1446 -1741 
Q 1235 -1677 1091 -1542 
Q 947 -1408 909 -1203 
Q 896 -1133 957 -1088 
Q 1018 -1043 1120 -1043 
Q 1178 -1043 1222 -1068 
Q 1267 -1094 1312 -1126 
Q 1331 -1146 1350 -1162 
Q 1370 -1178 1389 -1190 
Q 1472 -1254 1587 -1331 
Q 1702 -1408 1875 -1408 
Q 2138 -1408 2317 -1257 
Q 2496 -1107 2614 -873 
Q 2733 -640 2793 -390 
Q 2854 -141 2874 51 
Q 2899 282 2918 570 
Q 2938 858 2938 1075 
Q 2938 1267 2918 1350 
Q 2778 1158 2614 985 
Q 2451 813 2313 685 
Q 2176 557 2112 499 
Q 1997 403 1840 300 
Q 1683 198 1513 128 
Q 1344 58 1184 58 
Q 947 58 742 173 
Q 538 288 413 486 
Q 288 685 288 928 
Q 288 1370 467 1805 
Q 646 2240 963 2601 
Q 1280 2963 1699 3177 
Q 2118 3392 2598 3392 
Q 2803 3392 2963 3302 
Q 3123 3213 3123 3059 
Q 3123 2995 3072 2918 
Q 3021 2842 2944 2842 
Q 2912 2842 2874 2861 
Q 2797 2906 2701 2934 
Q 2605 2963 2496 2963 
Q 2387 2963 2272 2925 
Q 1958 2842 1686 2653 
Q 1414 2464 1206 2201 
Q 998 1939 883 1638 
Q 768 1338 768 1030 
Q 768 774 841 617 
Q 915 461 1152 461 
Q 1306 461 1469 557 
Q 1632 653 1776 787 
Q 1920 922 2010 1030 
Q 2144 1184 2291 1369 
Q 2438 1555 2572 1731 
Q 2707 1907 2800 2041 
Q 2893 2176 2918 2221 
Q 2976 2291 3014 2307 
Q 3053 2323 3123 2323 
Q 3238 2323 3289 2249 
Q 3341 2176 3360 2073 
Q 3379 1971 3392 1882 
L 3392 1395 
Q 3392 1133 3379 797 
Q 3366 461 3324 99 
Q 3283 -262 3187 -598 
Q 3091 -934 2924 -1209 
Q 2758 -1485 2502 -1645 
Q 2246 -1805 1882 -1805 
z
" transform="scale(0.015625)"/>
       <path id="FuzzyBubbles-Regular-73" d="M 1594 -96 
Q 1421 -96 1190 -77 
Q 960 -58 739 6 
Q 518 70 374 211 
Q 230 352 230 589 
Q 230 896 474 896 
Q 557 896 602 838 
L 659 762 
Q 678 736 694 707 
Q 710 678 736 646 
Q 826 512 992 397 
Q 1158 282 1491 282 
Q 1683 282 1913 342 
Q 2144 403 2307 537 
Q 2470 672 2470 896 
Q 2470 1082 2355 1190 
Q 2240 1299 2099 1363 
Q 2035 1395 1955 1427 
Q 1875 1459 1786 1485 
Q 1702 1510 1619 1536 
Q 1536 1562 1446 1587 
Q 1216 1664 1027 1763 
Q 838 1862 726 2016 
Q 614 2170 614 2406 
Q 614 2701 809 2899 
Q 1005 3098 1302 3197 
Q 1600 3296 1907 3296 
Q 2022 3296 2176 3277 
Q 2330 3258 2477 3206 
Q 2624 3155 2723 3062 
Q 2822 2970 2822 2816 
Q 2822 2739 2793 2684 
Q 2765 2630 2707 2630 
Q 2669 2630 2643 2643 
Q 2362 2771 2173 2828 
Q 1984 2886 1843 2886 
Q 1760 2886 1629 2864 
Q 1498 2842 1370 2794 
Q 1242 2746 1155 2659 
Q 1069 2573 1069 2438 
Q 1069 2195 1440 2035 
Q 1574 1984 1740 1933 
Q 1907 1882 2086 1811 
Q 2317 1728 2509 1613 
Q 2701 1498 2813 1334 
Q 2925 1171 2925 928 
Q 2925 563 2739 336 
Q 2554 109 2253 6 
Q 1952 -96 1594 -96 
z
" transform="scale(0.015625)"/>
       <path id="FuzzyBubbles-Regular-70" d="M 646 -1805 
Q 538 -1805 506 -1693 
Q 474 -1581 474 -1446 
Q 474 -1395 477 -1340 
Q 480 -1286 480 -1242 
Q 480 -589 537 9 
Q 595 608 621 1171 
Q 627 1318 633 1536 
Q 640 1754 643 1952 
Q 646 2150 640 2240 
Q 518 2240 448 2329 
Q 378 2419 378 2502 
Q 378 2566 438 2672 
Q 499 2778 621 2822 
Q 634 2854 634 2889 
Q 634 2925 634 2970 
Q 634 3110 611 3286 
Q 589 3462 576 3546 
Q 570 3584 653 3629 
Q 736 3674 819 3674 
Q 934 3674 979 3597 
Q 1024 3520 1037 3405 
Q 1050 3290 1069 3174 
Q 1357 3290 1536 3347 
Q 1715 3405 1875 3424 
Q 2035 3443 2259 3443 
Q 2675 3443 3017 3308 
Q 3360 3174 3565 2908 
Q 3770 2643 3770 2246 
Q 3770 1869 3613 1491 
Q 3456 1114 3184 803 
Q 2912 493 2560 307 
Q 2208 122 1818 122 
Q 1715 122 1619 144 
Q 1523 166 1421 179 
Q 1382 186 1344 189 
Q 1306 192 1274 192 
L 1062 192 
Q 1062 45 1062 -217 
Q 1062 -480 1052 -774 
Q 1043 -1069 1024 -1325 
Q 1011 -1523 905 -1664 
Q 800 -1805 646 -1805 
z
M 1786 550 
Q 2106 550 2384 700 
Q 2662 851 2876 1100 
Q 3091 1350 3209 1641 
Q 3328 1933 3328 2214 
Q 3328 2522 3174 2704 
Q 3021 2886 2787 2966 
Q 2554 3046 2298 3046 
Q 2170 3046 2029 3036 
Q 1888 3027 1760 2970 
Q 1478 2848 1328 2704 
Q 1178 2560 1126 2362 
Q 1101 2272 1094 2176 
Q 1088 2080 1088 1978 
Q 1088 1875 1094 1760 
Q 1101 1645 1101 1517 
L 1101 986 
Q 1101 838 1216 739 
Q 1331 640 1491 595 
Q 1651 550 1786 550 
z
" transform="scale(0.015625)"/>
       <path id="FuzzyBubbles-Regular-63" d="M 1728 96 
Q 1280 96 973 313 
Q 666 531 506 899 
Q 346 1267 346 1702 
Q 346 2189 563 2592 
Q 781 2995 1165 3241 
Q 1549 3488 2035 3488 
Q 2170 3488 2349 3469 
Q 2528 3450 2694 3392 
Q 2861 3334 2969 3225 
Q 3078 3117 3078 2938 
Q 3078 2867 3020 2816 
Q 2963 2765 2835 2765 
Q 2733 2765 2646 2816 
Q 2560 2867 2483 2918 
Q 2368 2995 2243 3056 
Q 2118 3117 1971 3117 
Q 1690 3117 1478 2973 
Q 1267 2829 1126 2601 
Q 986 2374 915 2121 
Q 845 1869 845 1658 
Q 845 1242 1008 995 
Q 1171 749 1443 643 
Q 1715 538 2035 538 
Q 2342 538 2595 646 
Q 2848 755 3110 877 
Q 3200 922 3258 922 
Q 3334 922 3360 861 
Q 3386 800 3386 710 
Q 3386 544 3251 432 
Q 3117 320 2912 253 
Q 2707 186 2473 150 
Q 2240 115 2041 105 
Q 1843 96 1728 96 
z
" transform="scale(0.015625)"/>
       <path id="FuzzyBubbles-Regular-64" d="M 1101 -96 
Q 653 19 422 377 
Q 192 736 192 1171 
Q 192 1581 374 1961 
Q 557 2342 864 2646 
Q 1171 2950 1564 3126 
Q 1958 3302 2381 3302 
Q 2630 3302 2771 3289 
Q 2912 3277 3091 3206 
Q 3098 3302 3123 3475 
Q 3149 3648 3181 3843 
Q 3213 4038 3232 4192 
Q 3251 4333 3273 4477 
Q 3296 4621 3341 4755 
Q 3443 5037 3635 5037 
Q 3782 5037 3782 4813 
Q 3782 4781 3779 4739 
Q 3776 4698 3770 4646 
Q 3667 3872 3619 3113 
Q 3571 2355 3571 1600 
Q 3571 1280 3590 969 
Q 3610 659 3635 333 
Q 3648 160 3574 61 
Q 3501 -38 3411 -38 
Q 3283 -38 3238 122 
Q 3174 326 3136 547 
Q 3098 768 3085 915 
Q 2848 653 2573 422 
Q 2298 192 2000 48 
Q 1702 -96 1389 -96 
L 1101 -96 
z
M 1350 301 
Q 1658 301 1962 457 
Q 2266 614 2522 867 
Q 2778 1120 2931 1411 
Q 3085 1702 3085 1971 
Q 3085 2214 3011 2419 
Q 2938 2624 2800 2749 
Q 2662 2874 2470 2874 
Q 2112 2874 1789 2733 
Q 1466 2592 1213 2349 
Q 960 2106 816 1792 
Q 672 1478 672 1139 
L 672 851 
Q 736 608 902 454 
Q 1069 301 1350 301 
z
" transform="scale(0.015625)"/>
       <path id="FuzzyBubbles-Regular-28" d="M 2387 -224 
Q 2246 -224 2128 -166 
Q 2010 -109 1894 -32 
Q 1856 0 1814 29 
Q 1773 58 1728 90 
Q 1126 506 787 1107 
Q 448 1709 448 2400 
Q 448 2957 649 3485 
Q 851 4013 1225 4451 
Q 1600 4890 2112 5171 
Q 2291 5274 2422 5328 
Q 2554 5382 2707 5382 
Q 2854 5382 2902 5344 
Q 2950 5306 2950 5254 
Q 2950 5120 2733 5011 
Q 2682 4979 2624 4953 
Q 2566 4928 2509 4902 
Q 2464 4877 2409 4851 
Q 2355 4826 2304 4794 
Q 1882 4531 1565 4140 
Q 1248 3750 1075 3292 
Q 902 2835 902 2368 
Q 902 1978 1043 1574 
Q 1184 1171 1466 877 
Q 1523 826 1619 736 
Q 1715 646 1801 569 
Q 1888 493 1907 474 
Q 1958 435 2012 400 
Q 2067 365 2118 333 
Q 2170 307 2227 275 
Q 2285 243 2330 211 
Q 2528 77 2528 -58 
Q 2528 -141 2525 -176 
Q 2522 -211 2490 -224 
L 2387 -224 
z
" transform="scale(0.015625)"/>
       <path id="FuzzyBubbles-Regular-78" d="M 2810 -64 
Q 2714 -64 2653 -19 
Q 2592 26 2522 141 
L 2048 915 
Q 2022 960 1952 1056 
Q 1882 1152 1814 1241 
Q 1747 1331 1728 1350 
Q 1651 1286 1539 1158 
Q 1427 1030 1318 890 
L 1120 646 
Q 1088 614 1049 572 
Q 1011 531 973 486 
Q 883 390 819 313 
Q 755 237 659 166 
Q 582 109 493 109 
Q 422 109 371 157 
Q 320 205 320 307 
Q 320 474 457 656 
Q 595 838 800 1037 
Q 902 1133 998 1222 
Q 1094 1312 1165 1395 
Q 1235 1478 1302 1548 
Q 1370 1619 1472 1747 
Q 1453 1786 1363 1917 
Q 1274 2048 1165 2208 
Q 1056 2368 963 2496 
Q 870 2624 838 2662 
Q 736 2784 617 2937 
Q 499 3091 499 3258 
Q 499 3328 560 3360 
Q 621 3392 704 3392 
Q 774 3392 873 3309 
Q 973 3226 1043 3130 
Q 1114 3040 1229 2889 
Q 1344 2739 1453 2604 
Q 1562 2470 1600 2413 
Q 1626 2394 1674 2323 
Q 1722 2253 1766 2192 
Q 1811 2131 1811 2131 
Q 2080 2413 2352 2688 
Q 2624 2963 2893 3238 
Q 2982 3328 3030 3344 
Q 3078 3360 3130 3360 
Q 3296 3360 3296 3187 
Q 3296 3117 3280 3072 
Q 3264 3027 3219 2970 
Q 2925 2650 2713 2429 
Q 2502 2208 2361 2048 
Q 2221 1888 2118 1747 
Q 2138 1670 2240 1494 
Q 2342 1318 2473 1113 
Q 2605 909 2717 733 
Q 2829 557 2874 480 
Q 3002 262 3002 115 
Q 3002 -64 2810 -64 
z
" transform="scale(0.015625)"/>
       <path id="FuzzyBubbles-Regular-29" d="M 275 -346 
Q 173 -346 134 -314 
Q 96 -282 96 -211 
Q 96 -96 256 0 
Q 301 32 352 54 
Q 403 77 448 96 
Q 499 128 556 150 
Q 614 173 659 198 
Q 1158 467 1452 896 
Q 1747 1325 1875 1827 
Q 2003 2330 2003 2803 
Q 2003 3238 1884 3648 
Q 1766 4058 1485 4410 
Q 1440 4461 1369 4525 
Q 1299 4589 1222 4653 
Q 1139 4723 1046 4793 
Q 954 4864 864 4934 
Q 717 5056 585 5149 
Q 454 5242 454 5286 
Q 454 5395 486 5424 
Q 518 5453 659 5453 
Q 762 5453 874 5405 
Q 986 5357 1101 5274 
Q 1786 4806 2160 4204 
Q 2534 3603 2534 2803 
Q 2534 2259 2348 1734 
Q 2163 1210 1820 758 
Q 1478 307 998 -6 
Q 909 -64 784 -144 
Q 659 -224 524 -285 
Q 390 -346 275 -346 
z
" transform="scale(0.015625)"/>
      </defs>
      <use xlink:href="#FuzzyBubbles-Regular-4e"/>
      <use xlink:href="#FuzzyBubbles-Regular-75" x="70.299988"/>
      <use xlink:href="#FuzzyBubbles-Regular-6d" x="135.599976"/>
      <use xlink:href="#FuzzyBubbles-Regular-62" x="218.799957"/>
      <use xlink:href="#FuzzyBubbles-Regular-65" x="282.199951"/>
      <use xlink:href="#FuzzyBubbles-Regular-72" x="337.599945"/>
      <use xlink:href="#FuzzyBubbles-Regular-20" x="378.09993"/>
      <use xlink:href="#FuzzyBubbles-Regular-6f" x="417.199921"/>
      <use xlink:href="#FuzzyBubbles-Regular-66" x="484.999908"/>
      <use xlink:href="#FuzzyBubbles-Regular-20" x="529.499893"/>
      <use xlink:href="#FuzzyBubbles-Regular-69" x="568.599884"/>
      <use xlink:href="#FuzzyBubbles-Regular-6d" x="594.799881"/>
      <use xlink:href="#FuzzyBubbles-Regular-61" x="677.999863"/>
      <use xlink:href="#FuzzyBubbles-Regular-67" x="738.899857"/>
      <use xlink:href="#FuzzyBubbles-Regular-65" x="797.29985"/>
      <use xlink:href="#FuzzyBubbles-Regular-73" x="852.699844"/>
      <use xlink:href="#FuzzyBubbles-Regular-20" x="902.999832"/>
      <use xlink:href="#FuzzyBubbles-Regular-70" x="942.099823"/>
      <use xlink:href="#FuzzyBubbles-Regular-72" x="1003.999817"/>
      <use xlink:href="#FuzzyBubbles-Regular-6f" x="1044.499802"/>
      <use xlink:href="#FuzzyBubbles-Regular-63" x="1112.299789"/>
      <use xlink:href="#FuzzyBubbles-Regular-65" x="1170.199783"/>
      <use xlink:href="#FuzzyBubbles-Regular-73" x="1225.599777"/>
      <use xlink:href="#FuzzyBubbles-Regular-73" x="1275.899765"/>
      <use xlink:href="#FuzzyBubbles-Regular-65" x="1326.199753"/>
      <use xlink:href="#FuzzyBubbles-Regular-64" x="1381.599747"/>
      <use xlink:href="#FuzzyBubbles-Regular-20" x="1446.499741"/>
      <use xlink:href="#FuzzyBubbles-Regular-28" x="1485.599731"/>
      <use xlink:href="#FuzzyBubbles-Regular-78" x="1533.199722"/>
      <use xlink:href="#FuzzyBubbles-Regular-31" x="1590.599716"/>
      <use xlink:href="#FuzzyBubbles-Regular-30" x="1635.199707"/>
      <use xlink:href="#FuzzyBubbles-Regular-30" x="1711.899689"/>
      <use xlink:href="#FuzzyBubbles-Regular-30" x="1788.59967"/>
      <use xlink:href="#FuzzyBubbles-Regular-29" x="1865.299652"/>
     </g>
    </g>
   </g>
   <g id="matplotlib.axis_2">
    <g id="ytick_1">
     <g id="line2d_7">
      <defs>
       <path id="m51e6a6814a" d="M 0 0 
L -6 0 
" style="stroke: #1a1a1a; stroke-width: 1.25"/>
      </defs>
      <g>
       <use xlink:href="#m51e6a6814a" x="135" y="629.307899" style="fill: #1a1a1a; stroke: #1a1a1a; stroke-width: 1.25"/>
      </g>
     </g>
     <g id="text_7">
      <!-- 1000 -->
      <g style="fill: #1a1a1a" transform="translate(80.173984 635.759656) scale(0.165 -0.165)">
       <use xlink:href="#FuzzyBubbles-Regular-31"/>
       <use xlink:href="#FuzzyBubbles-Regular-30" x="44.599991"/>
       <use xlink:href="#FuzzyBubbles-Regular-30" x="121.299973"/>
       <use xlink:href="#FuzzyBubbles-Regular-30" x="197.999954"/>
      </g>
     </g>
    </g>
    <g id="ytick_2">
     <g id="line2d_8">
      <g>
       <use xlink:href="#m51e6a6814a" x="135" y="535.418182" style="fill: #1a1a1a; stroke: #1a1a1a; stroke-width: 1.25"/>
      </g>
     </g>
     <g id="text_8">
      <!-- 2000 -->
      <g style="fill: #1a1a1a" transform="translate(77.977422 541.86994) scale(0.165 -0.165)">
       <use xlink:href="#FuzzyBubbles-Regular-32"/>
       <use xlink:href="#FuzzyBubbles-Regular-30" x="57.899994"/>
       <use xlink:href="#FuzzyBubbles-Regular-30" x="134.599976"/>
       <use xlink:href="#FuzzyBubbles-Regular-30" x="211.299957"/>
      </g>
     </g>
    </g>
    <g id="ytick_3">
     <g id="line2d_9">
      <g>
       <use xlink:href="#m51e6a6814a" x="135" y="441.528465" style="fill: #1a1a1a; stroke: #1a1a1a; stroke-width: 1.25"/>
      </g>
     </g>
     <g id="text_9">
      <!-- 3000 -->
      <g style="fill: #1a1a1a" transform="translate(77.729922 447.980223) scale(0.165 -0.165)">
       <use xlink:href="#FuzzyBubbles-Regular-33"/>
       <use xlink:href="#FuzzyBubbles-Regular-30" x="59.399994"/>
       <use xlink:href="#FuzzyBubbles-Regular-30" x="136.099976"/>
       <use xlink:href="#FuzzyBubbles-Regular-30" x="212.799957"/>
      </g>
     </g>
    </g>
    <g id="ytick_4">
     <g id="line2d_10">
      <g>
       <use xlink:href="#m51e6a6814a" x="135" y="347.638748" style="fill: #1a1a1a; stroke: #1a1a1a; stroke-width: 1.25"/>
      </g>
     </g>
     <g id="text_10">
      <!-- 4000 -->
      <g style="fill: #1a1a1a" transform="translate(77.729922 354.090506) scale(0.165 -0.165)">
       <use xlink:href="#FuzzyBubbles-Regular-34"/>
       <use xlink:href="#FuzzyBubbles-Regular-30" x="59.399994"/>
       <use xlink:href="#FuzzyBubbles-Regular-30" x="136.099976"/>
       <use xlink:href="#FuzzyBubbles-Regular-30" x="212.799957"/>
      </g>
     </g>
    </g>
    <g id="ytick_5">
     <g id="line2d_11">
      <g>
       <use xlink:href="#m51e6a6814a" x="135" y="253.749031" style="fill: #1a1a1a; stroke: #1a1a1a; stroke-width: 1.25"/>
      </g>
     </g>
     <g id="text_11">
      <!-- 5000 -->
      <g style="fill: #1a1a1a" transform="translate(77.812422 260.200789) scale(0.165 -0.165)">
       <defs>
        <path id="FuzzyBubbles-Regular-35" d="M 1248 -192 
Q 1146 -192 1018 -189 
Q 890 -186 794 -138 
Q 698 -90 698 38 
L 698 134 
Q 698 179 707 220 
Q 717 262 749 275 
Q 877 275 979 272 
Q 1082 269 1178 269 
Q 1286 269 1395 278 
Q 1504 288 1626 314 
Q 1875 365 2121 512 
Q 2368 659 2569 870 
Q 2771 1082 2892 1331 
Q 3014 1581 3014 1850 
Q 3014 2118 2870 2262 
Q 2726 2406 2518 2464 
Q 2310 2522 2112 2522 
Q 1869 2522 1635 2464 
Q 1402 2406 1178 2266 
Q 1101 2221 998 2144 
Q 896 2067 790 2009 
Q 685 1952 589 1952 
Q 486 1952 403 2029 
Q 320 2106 320 2182 
Q 320 2266 345 2368 
Q 371 2470 416 2592 
Q 442 2656 461 2717 
Q 480 2778 499 2835 
Q 544 2950 563 3072 
Q 576 3136 592 3286 
Q 608 3437 624 3619 
Q 640 3802 653 3962 
Q 666 4122 672 4198 
Q 736 4333 886 4387 
Q 1037 4442 1222 4454 
Q 1408 4467 1555 4467 
Q 1504 4467 1571 4470 
Q 1638 4474 1779 4480 
Q 1920 4486 2089 4489 
Q 2259 4493 2412 4496 
Q 2566 4499 2662 4499 
L 2701 4499 
Q 2816 4499 2944 4499 
Q 3072 4499 3181 4467 
Q 3283 4442 3334 4387 
Q 3386 4333 3386 4230 
Q 3386 4147 3306 4112 
Q 3226 4077 3123 4070 
Q 3021 4064 2944 4064 
L 1491 4064 
Q 1446 4064 1357 4045 
Q 1331 4038 1302 4035 
Q 1274 4032 1222 4032 
L 1107 3917 
Q 1107 3866 1104 3837 
Q 1101 3808 1094 3782 
Q 1094 3757 1091 3731 
Q 1088 3706 1082 3686 
Q 1062 3622 1027 3475 
Q 992 3328 960 3184 
Q 928 3040 902 2982 
L 902 2752 
Q 1146 2752 1299 2781 
Q 1453 2810 1581 2842 
Q 1690 2874 1808 2899 
Q 1926 2925 2042 2925 
Q 2445 2925 2758 2822 
Q 3072 2720 3248 2493 
Q 3424 2266 3424 1888 
Q 3424 1485 3241 1113 
Q 3059 742 2752 448 
Q 2445 154 2054 -19 
Q 1664 -192 1248 -192 
z
" transform="scale(0.015625)"/>
       </defs>
       <use xlink:href="#FuzzyBubbles-Regular-35"/>
       <use xlink:href="#FuzzyBubbles-Regular-30" x="58.899994"/>
       <use xlink:href="#FuzzyBubbles-Regular-30" x="135.599976"/>
       <use xlink:href="#FuzzyBubbles-Regular-30" x="212.299957"/>
      </g>
     </g>
    </g>
    <g id="ytick_6">
     <g id="line2d_12">
      <g>
       <use xlink:href="#m51e6a6814a" x="135" y="159.859314" style="fill: #1a1a1a; stroke: #1a1a1a; stroke-width: 1.25"/>
      </g>
     </g>
     <g id="text_12">
      <!-- 6000 -->
      <g style="fill: #1a1a1a" transform="translate(77.152422 166.311072) scale(0.165 -0.165)">
       <defs>
        <path id="FuzzyBubbles-Regular-36" d="M 1894 96 
Q 1395 96 1043 333 
Q 691 570 505 966 
Q 320 1363 320 1837 
Q 320 2586 646 3194 
Q 973 3802 1542 4326 
Q 1683 4454 1792 4524 
Q 1901 4595 2029 4595 
Q 2240 4595 2240 4390 
Q 2240 4352 2195 4307 
Q 2150 4262 2118 4237 
Q 2099 4218 2080 4198 
Q 2061 4179 2035 4160 
Q 1875 4013 1712 3859 
Q 1549 3706 1402 3539 
Q 1261 3379 1136 3190 
Q 1011 3002 902 2746 
Q 902 2714 892 2691 
Q 883 2669 870 2637 
Q 858 2592 845 2544 
Q 832 2496 832 2477 
L 832 2272 
Q 992 2272 1088 2310 
Q 1184 2349 1254 2406 
L 1357 2490 
Q 1382 2515 1408 2528 
Q 1690 2675 1926 2761 
Q 2163 2848 2477 2848 
Q 2810 2848 3098 2697 
Q 3386 2547 3565 2288 
Q 3744 2029 3744 1702 
Q 3744 1363 3581 1072 
Q 3418 781 3146 560 
Q 2874 339 2547 217 
Q 2221 96 1894 96 
z
M 1920 531 
Q 2266 531 2563 681 
Q 2861 832 3046 1094 
Q 3232 1357 3232 1702 
Q 3232 2061 3040 2269 
Q 2848 2477 2477 2477 
Q 2138 2477 1872 2323 
Q 1606 2170 1382 1946 
Q 1312 1882 1245 1808 
Q 1178 1734 1114 1664 
Q 1114 1664 1101 1661 
Q 1088 1658 1056 1651 
Q 1024 1645 976 1645 
Q 928 1645 800 1645 
L 800 1472 
Q 800 1242 912 1066 
Q 1024 890 1197 771 
Q 1370 653 1565 592 
Q 1760 531 1920 531 
z
" transform="scale(0.015625)"/>
       </defs>
       <use xlink:href="#FuzzyBubbles-Regular-36"/>
       <use xlink:href="#FuzzyBubbles-Regular-30" x="62.899994"/>
       <use xlink:href="#FuzzyBubbles-Regular-30" x="139.599976"/>
       <use xlink:href="#FuzzyBubbles-Regular-30" x="216.299957"/>
      </g>
     </g>
    </g>
    <g id="text_13">
     <!-- Number of unique labels -->
     <g style="fill: #1a1a1a" transform="translate(66.635859 474.291562) rotate(-90) scale(0.18 -0.18)">
      <defs>
       <path id="FuzzyBubbles-Regular-6e" d="M 717 128 
Q 621 128 576 173 
Q 531 218 512 301 
Q 480 410 480 531 
L 480 781 
Q 480 986 493 1136 
Q 506 1286 506 1466 
Q 506 1530 502 1603 
Q 499 1677 493 1760 
Q 467 2074 422 2419 
Q 378 2765 378 3046 
L 378 3296 
Q 416 3386 451 3405 
Q 486 3424 550 3424 
Q 704 3424 768 3305 
Q 832 3187 854 3030 
Q 877 2874 883 2758 
Q 890 2714 906 2566 
Q 922 2419 941 2236 
Q 960 2054 976 1888 
Q 992 1722 992 1632 
Q 1094 1843 1235 2070 
Q 1376 2298 1520 2496 
Q 1664 2694 1779 2816 
Q 1946 3002 2173 3107 
Q 2400 3213 2624 3213 
Q 2886 3213 3084 3065 
Q 3283 2918 3427 2681 
Q 3571 2445 3667 2173 
Q 3763 1901 3821 1645 
Q 3904 1306 3945 1050 
Q 3987 794 4019 467 
Q 4019 326 3961 243 
Q 3904 160 3821 160 
Q 3699 160 3648 214 
Q 3597 269 3578 390 
Q 3533 634 3491 941 
Q 3450 1248 3379 1565 
Q 3309 1882 3174 2144 
Q 3123 2266 3046 2394 
Q 2970 2522 2861 2611 
Q 2752 2701 2592 2701 
Q 2381 2701 2166 2515 
Q 1952 2330 1760 2035 
Q 1568 1741 1408 1405 
Q 1248 1069 1139 768 
Q 1107 666 1059 541 
Q 1011 416 960 307 
Q 915 218 860 173 
Q 806 128 717 128 
z
" transform="scale(0.015625)"/>
       <path id="FuzzyBubbles-Regular-71" d="M 2963 -2317 
Q 2944 -2317 2921 -2317 
Q 2899 -2317 2874 -2310 
Q 2662 -2266 2553 -2131 
Q 2445 -1997 2406 -1817 
Q 2368 -1638 2368 -1459 
Q 2368 -1139 2416 -710 
Q 2464 -282 2550 176 
Q 2637 634 2752 1024 
Q 2541 717 2237 505 
Q 1933 294 1625 185 
Q 1318 77 1088 77 
Q 826 77 624 221 
Q 422 365 307 592 
Q 192 819 192 1075 
Q 192 1517 387 1917 
Q 582 2317 915 2627 
Q 1248 2938 1673 3117 
Q 2099 3296 2560 3296 
Q 2854 3296 3078 3161 
Q 3302 3027 3386 2797 
Q 3398 2758 3411 2704 
Q 3424 2650 3424 2598 
Q 3424 2528 3395 2457 
Q 3366 2387 3296 2336 
Q 3398 2253 3443 2166 
Q 3488 2080 3488 1933 
Q 3488 1715 3427 1465 
Q 3366 1216 3296 976 
Q 3226 736 3181 544 
Q 3123 301 3049 -28 
Q 2976 -358 2921 -684 
Q 2867 -1011 2867 -1261 
Q 2867 -1414 2896 -1520 
Q 2925 -1626 2989 -1664 
Q 3098 -1728 3158 -1840 
Q 3219 -1952 3219 -2061 
Q 3219 -2163 3155 -2240 
Q 3091 -2317 2963 -2317 
z
M 1114 506 
Q 1325 506 1529 614 
Q 1734 723 1926 896 
Q 2118 1069 2285 1261 
Q 2419 1408 2537 1545 
Q 2656 1683 2797 1843 
Q 2912 1984 3011 2128 
Q 3110 2272 3110 2419 
Q 3110 2496 3085 2554 
Q 3014 2739 2870 2835 
Q 2726 2931 2624 2931 
Q 2278 2931 1929 2780 
Q 1581 2630 1286 2377 
Q 992 2125 813 1805 
Q 634 1485 634 1139 
Q 634 1011 672 864 
Q 710 717 812 611 
Q 915 506 1114 506 
z
" transform="scale(0.015625)"/>
       <path id="FuzzyBubbles-Regular-6c" d="M 902 -32 
Q 781 -32 717 64 
Q 653 160 627 301 
Q 602 442 598 582 
Q 595 723 595 806 
Q 595 858 592 922 
Q 589 986 589 1050 
Q 589 1370 608 1827 
Q 627 2285 662 2793 
Q 698 3302 746 3788 
Q 794 4275 851 4653 
Q 902 4838 988 4921 
Q 1075 5005 1158 5005 
Q 1235 5005 1296 4934 
Q 1357 4864 1357 4736 
Q 1357 4710 1357 4691 
Q 1357 4672 1350 4646 
Q 1190 3872 1145 3027 
Q 1101 2182 1101 1402 
Q 1101 1082 1110 835 
Q 1120 589 1120 326 
Q 1120 186 1059 77 
Q 998 -32 902 -32 
z
" transform="scale(0.015625)"/>
      </defs>
      <use xlink:href="#FuzzyBubbles-Regular-4e"/>
      <use xlink:href="#FuzzyBubbles-Regular-75" x="70.299988"/>
      <use xlink:href="#FuzzyBubbles-Regular-6d" x="135.599976"/>
      <use xlink:href="#FuzzyBubbles-Regular-62" x="218.799957"/>
      <use xlink:href="#FuzzyBubbles-Regular-65" x="282.199951"/>
      <use xlink:href="#FuzzyBubbles-Regular-72" x="337.599945"/>
      <use xlink:href="#FuzzyBubbles-Regular-20" x="378.09993"/>
      <use xlink:href="#FuzzyBubbles-Regular-6f" x="417.199921"/>
      <use xlink:href="#FuzzyBubbles-Regular-66" x="484.999908"/>
      <use xlink:href="#FuzzyBubbles-Regular-20" x="529.499893"/>
      <use xlink:href="#FuzzyBubbles-Regular-75" x="568.599884"/>
      <use xlink:href="#FuzzyBubbles-Regular-6e" x="633.899872"/>
      <use xlink:href="#FuzzyBubbles-Regular-69" x="701.299866"/>
      <use xlink:href="#FuzzyBubbles-Regular-71" x="727.499863"/>
      <use xlink:href="#FuzzyBubbles-Regular-75" x="787.899857"/>
      <use xlink:href="#FuzzyBubbles-Regular-65" x="853.199844"/>
      <use xlink:href="#FuzzyBubbles-Regular-20" x="908.599838"/>
      <use xlink:href="#FuzzyBubbles-Regular-6c" x="947.699829"/>
      <use xlink:href="#FuzzyBubbles-Regular-61" x="973.79982"/>
      <use xlink:href="#FuzzyBubbles-Regular-62" x="1034.699814"/>
      <use xlink:href="#FuzzyBubbles-Regular-65" x="1098.099808"/>
      <use xlink:href="#FuzzyBubbles-Regular-6c" x="1153.499802"/>
      <use xlink:href="#FuzzyBubbles-Regular-73" x="1179.599792"/>
     </g>
    </g>
   </g>
   <g id="PathCollection_1">
    <defs>
     <path id="mf5273cb898" d="M 0 4.330127 
C 1.148363 4.330127 2.249847 3.873878 3.061862 3.061862 
C 3.873878 2.249847 4.330127 1.148363 4.330127 0 
C 4.330127 -1.148363 3.873878 -2.249847 3.061862 -3.061862 
C 2.249847 -3.873878 1.148363 -4.330127 0 -4.330127 
C -1.148363 -4.330127 -2.249847 -3.873878 -3.061862 -3.061862 
C -3.873878 -2.249847 -4.330127 -1.148363 -4.330127 0 
C -4.330127 1.148363 -3.873878 2.249847 -3.061862 3.061862 
C -2.249847 3.873878 -1.148363 4.330127 0 4.330127 
z
" style="stroke: #006400"/>
    </defs>
    <g clip-path="url(#p80e4ea704f)">
     <use xlink:href="#mf5273cb898" x="173.045455" y="615.6" style="fill: #006400; stroke: #006400"/>
     <use xlink:href="#mf5273cb898" x="257.403447" y="340.690909" style="fill: #006400; stroke: #006400"/>
     <use xlink:href="#mf5273cb898" x="341.761439" y="275.343666" style="fill: #006400; stroke: #006400"/>
     <use xlink:href="#mf5273cb898" x="426.119432" y="232.342176" style="fill: #006400; stroke: #006400"/>
     <use xlink:href="#mf5273cb898" x="510.477424" y="201.0769" style="fill: #006400; stroke: #006400"/>
     <use xlink:href="#mf5273cb898" x="594.835416" y="175.820566" style="fill: #006400; stroke: #006400"/>
     <use xlink:href="#mf5273cb898" x="679.193409" y="157.324292" style="fill: #006400; stroke: #006400"/>
     <use xlink:href="#mf5273cb898" x="763.551401" y="138.26468" style="fill: #006400; stroke: #006400"/>
     <use xlink:href="#mf5273cb898" x="847.909393" y="124.087332" style="fill: #006400; stroke: #006400"/>
     <use xlink:href="#mf5273cb898" x="932.267386" y="111.6" style="fill: #006400; stroke: #006400"/>
    </g>
   </g>
   <g id="text_14">
    <!-- 1146 -->
    <g style="fill: #1a1a1a" transform="translate(153.045455 605.6) scale(0.14 -0.14)">
     <use xlink:href="#FuzzyBubbles-Regular-31"/>
     <use xlink:href="#FuzzyBubbles-Regular-31" x="44.599991"/>
     <use xlink:href="#FuzzyBubbles-Regular-34" x="89.199982"/>
     <use xlink:href="#FuzzyBubbles-Regular-36" x="148.599976"/>
    </g>
   </g>
   <g id="text_15">
    <!-- 4074 -->
    <g style="fill: #1a1a1a" transform="translate(237.403447 330.690909) scale(0.14 -0.14)">
     <defs>
      <path id="FuzzyBubbles-Regular-37" d="M 1190 -256 
Q 1056 -256 1001 -160 
Q 947 -64 947 109 
Q 947 371 1011 592 
Q 1075 813 1178 1069 
Q 1350 1504 1520 1875 
Q 1690 2246 1894 2624 
Q 2099 3002 2362 3430 
L 2362 3667 
Q 1990 3667 1728 3635 
Q 1466 3603 1190 3603 
Q 1094 3603 944 3609 
Q 794 3616 643 3648 
Q 493 3680 390 3750 
Q 288 3821 288 3942 
Q 288 4026 352 4080 
Q 416 4134 499 4134 
Q 589 4134 681 4121 
Q 774 4109 864 4090 
Q 973 4070 1075 4051 
Q 1178 4032 1286 4032 
L 1542 4032 
L 3066 4307 
L 3155 4307 
Q 3360 4307 3360 4102 
Q 3360 4070 3363 4044 
Q 3366 4019 3366 4000 
Q 2976 3514 2662 3011 
Q 2349 2509 2061 1952 
Q 1926 1696 1788 1347 
Q 1651 998 1574 717 
L 1574 723 
Q 1562 678 1536 569 
Q 1510 461 1485 339 
Q 1459 230 1436 128 
Q 1414 26 1402 -6 
Q 1344 -256 1190 -256 
z
" transform="scale(0.015625)"/>
     </defs>
     <use xlink:href="#FuzzyBubbles-Regular-34"/>
     <use xlink:href="#FuzzyBubbles-Regular-30" x="59.399994"/>
     <use xlink:href="#FuzzyBubbles-Regular-37" x="136.099976"/>
     <use xlink:href="#FuzzyBubbles-Regular-34" x="191.999969"/>
    </g>
   </g>
   <g id="text_16">
    <!-- 4770 -->
    <g style="fill: #1a1a1a" transform="translate(321.761439 265.343666) scale(0.14 -0.14)">
     <use xlink:href="#FuzzyBubbles-Regular-34"/>
     <use xlink:href="#FuzzyBubbles-Regular-37" x="59.399994"/>
     <use xlink:href="#FuzzyBubbles-Regular-37" x="115.299988"/>
     <use xlink:href="#FuzzyBubbles-Regular-30" x="171.199982"/>
    </g>
   </g>
   <g id="text_17">
    <!-- 5228 -->
    <g style="fill: #1a1a1a" transform="translate(406.119432 222.342176) scale(0.14 -0.14)">
     <defs>
      <path id="FuzzyBubbles-Regular-38" d="M 1914 -160 
Q 1645 -160 1363 -83 
Q 1082 -6 845 144 
Q 608 294 464 512 
Q 320 730 320 1011 
Q 320 1453 627 1747 
Q 934 2042 1440 2266 
L 1440 2387 
Q 1440 2400 1430 2435 
Q 1421 2470 1370 2515 
Q 1357 2528 1334 2547 
Q 1312 2566 1286 2586 
L 1062 2803 
Q 941 2944 851 3104 
Q 762 3264 762 3424 
Q 762 3616 886 3811 
Q 1011 4006 1212 4169 
Q 1414 4333 1644 4432 
Q 1875 4531 2086 4531 
L 2976 4531 
Q 3098 4531 3194 4441 
Q 3290 4352 3309 4218 
L 3309 4038 
Q 3379 3872 3437 3776 
L 3539 3629 
Q 3571 3578 3596 3507 
Q 3622 3437 3622 3290 
Q 3622 3053 3516 2864 
Q 3411 2675 3206 2477 
L 3206 2278 
Q 3546 2067 3770 1849 
Q 3994 1632 3994 1312 
Q 3994 934 3811 656 
Q 3629 378 3325 198 
Q 3021 19 2653 -70 
Q 2285 -160 1914 -160 
z
M 2330 2586 
Q 2483 2586 2675 2675 
Q 2867 2765 3008 2925 
Q 3149 3085 3149 3290 
Q 3149 3514 3037 3696 
Q 2925 3878 2739 3987 
Q 2554 4096 2330 4096 
Q 2176 4096 1990 4051 
Q 1805 4006 1632 3920 
Q 1459 3834 1347 3699 
Q 1235 3565 1235 3392 
Q 1235 3206 1353 3056 
Q 1472 2906 1648 2800 
Q 1824 2694 2009 2640 
Q 2195 2586 2330 2586 
z
M 2054 275 
Q 2227 275 2473 332 
Q 2720 390 2960 502 
Q 3200 614 3360 784 
Q 3520 954 3520 1178 
Q 3520 1408 3382 1568 
Q 3245 1728 3043 1827 
Q 2842 1926 2634 1971 
Q 2426 2016 2291 2016 
Q 2163 2016 1974 1968 
Q 1786 1920 1581 1837 
Q 1376 1754 1197 1635 
Q 1018 1517 906 1376 
Q 794 1235 794 1082 
Q 794 864 922 710 
Q 1050 557 1251 461 
Q 1453 365 1667 320 
Q 1882 275 2054 275 
z
" transform="scale(0.015625)"/>
     </defs>
     <use xlink:href="#FuzzyBubbles-Regular-35"/>
     <use xlink:href="#FuzzyBubbles-Regular-32" x="58.899994"/>
     <use xlink:href="#FuzzyBubbles-Regular-32" x="116.799988"/>
     <use xlink:href="#FuzzyBubbles-Regular-38" x="174.699982"/>
    </g>
   </g>
   <g id="text_18">
    <!-- 5561 -->
    <g style="fill: #1a1a1a" transform="translate(490.477424 191.0769) scale(0.14 -0.14)">
     <use xlink:href="#FuzzyBubbles-Regular-35"/>
     <use xlink:href="#FuzzyBubbles-Regular-35" x="58.899994"/>
     <use xlink:href="#FuzzyBubbles-Regular-36" x="117.799988"/>
     <use xlink:href="#FuzzyBubbles-Regular-31" x="180.699982"/>
    </g>
   </g>
   <g id="text_19">
    <!-- 5830 -->
    <g style="fill: #1a1a1a" transform="translate(574.835416 165.820566) scale(0.14 -0.14)">
     <use xlink:href="#FuzzyBubbles-Regular-35"/>
     <use xlink:href="#FuzzyBubbles-Regular-38" x="58.899994"/>
     <use xlink:href="#FuzzyBubbles-Regular-33" x="126.199982"/>
     <use xlink:href="#FuzzyBubbles-Regular-30" x="185.599976"/>
    </g>
   </g>
   <g id="text_20">
    <!-- 6027 -->
    <g style="fill: #1a1a1a" transform="translate(659.193409 147.324292) scale(0.14 -0.14)">
     <use xlink:href="#FuzzyBubbles-Regular-36"/>
     <use xlink:href="#FuzzyBubbles-Regular-30" x="62.899994"/>
     <use xlink:href="#FuzzyBubbles-Regular-32" x="139.599976"/>
     <use xlink:href="#FuzzyBubbles-Regular-37" x="197.499969"/>
    </g>
   </g>
   <g id="text_21">
    <!-- 6230 -->
    <g style="fill: #1a1a1a" transform="translate(743.551401 128.26468) scale(0.14 -0.14)">
     <use xlink:href="#FuzzyBubbles-Regular-36"/>
     <use xlink:href="#FuzzyBubbles-Regular-32" x="62.899994"/>
     <use xlink:href="#FuzzyBubbles-Regular-33" x="120.799988"/>
     <use xlink:href="#FuzzyBubbles-Regular-30" x="180.199982"/>
    </g>
   </g>
   <g id="text_22">
    <!-- 6381 -->
    <g style="fill: #1a1a1a" transform="translate(827.909393 114.087332) scale(0.14 -0.14)">
     <use xlink:href="#FuzzyBubbles-Regular-36"/>
     <use xlink:href="#FuzzyBubbles-Regular-33" x="62.899994"/>
     <use xlink:href="#FuzzyBubbles-Regular-38" x="122.299988"/>
     <use xlink:href="#FuzzyBubbles-Regular-31" x="189.599976"/>
    </g>
   </g>
   <g id="text_23">
    <!-- 6514 -->
    <g style="fill: #1a1a1a" transform="translate(912.267386 101.6) scale(0.14 -0.14)">
     <use xlink:href="#FuzzyBubbles-Regular-36"/>
     <use xlink:href="#FuzzyBubbles-Regular-35" x="62.899994"/>
     <use xlink:href="#FuzzyBubbles-Regular-31" x="121.799988"/>
     <use xlink:href="#FuzzyBubbles-Regular-34" x="166.399979"/>
    </g>
   </g>
  </g>
 </g>
 <defs>
  <clipPath id="p80e4ea704f">
   <rect x="135" y="86.4" width="837" height="554.4"/>
  </clipPath>
 </defs>
</svg>
