<?xml version="1.0" encoding="UTF-8" standalone="no"?><!DOCTYPE svg PUBLIC "-//W3C//DTD SVG 1.1//EN" "http://www.w3.org/Graphics/SVG/1.1/DTD/svg11.dtd"><svg width="100%" height="100%" viewBox="0 0 1310 700" version="1.1" xmlns="http://www.w3.org/2000/svg" xmlns:xlink="http://www.w3.org/1999/xlink" xml:space="preserve" xmlns:serif="http://www.serif.com/" style="fill-rule:evenodd;clip-rule:evenodd;stroke-linejoin:round;stroke-miterlimit:2;"><g id="logo-nft"><g opacity="0.3"><g><path d="M263.567,308.143l0,-306.094l66.094,0l84.844,158.906l30.469,66.563l1.875,-0c-1.563,-16.25 -3.282,-34.063 -5.157,-53.438c-1.875,-19.375 -2.812,-37.968 -2.812,-55.781l-0,-116.25l60.937,0l0,306.094l-65.625,-0l-84.843,-158.906l-30.938,-66.563l-1.875,0c1.563,16.563 3.36,34.375 5.391,53.438c2.031,19.062 3.047,37.343 3.047,54.843l-0,117.188l-61.407,-0Z" style="fill-rule:nonzero;"/><path d="M573.88,308.143l-0,-306.094l190.312,0l0,53.906l-126.093,0l-0,76.407l107.812,-0l0,53.906l-107.812,-0l-0,121.875l-64.219,-0Z" style="fill-rule:nonzero;"/><path d="M878.099,308.143l-0,-252.188l-85.313,0l0,-53.906l235.313,0l-0,53.906l-85.782,0l0,252.188l-64.218,-0Z" style="fill-rule:nonzero;"/><path d="M5.989,683.143l0,-306.094l190.313,0l-0,53.906l-126.094,0l0,76.407l107.813,-0l-0,53.906l-107.813,-0l0,121.875l-64.219,-0Z" style="fill-rule:nonzero;"/><path d="M244.583,683.143l0,-232.031l63.75,-0l0,232.031l-63.75,-0Zm31.875,-268.125c-10.312,-0 -18.906,-3.203 -25.781,-9.609c-6.875,-6.407 -10.313,-14.61 -10.313,-24.61c0,-10 3.438,-18.203 10.313,-24.609c6.875,-6.406 15.469,-9.61 25.781,-9.61c10.625,0 19.297,3.204 26.016,9.61c6.718,6.406 10.078,14.609 10.078,24.609c-0,10 -3.36,18.203 -10.078,24.61c-6.719,6.406 -15.391,9.609 -26.016,9.609Z" style="fill-rule:nonzero;"/><path d="M372.083,683.143l0,-232.031l52.031,-0l4.688,30l1.875,-0c10,-9.688 21.015,-18.047 33.047,-25.078c12.031,-7.032 26.015,-10.547 41.953,-10.547c25,-0 43.203,8.281 54.609,24.843c11.406,16.563 17.11,39.375 17.11,68.438l-0,144.375l-64.219,-0l-0,-136.406c-0,-17.5 -2.422,-29.61 -7.266,-36.328c-4.844,-6.719 -12.734,-10.079 -23.672,-10.079c-9.375,0 -17.343,2.11 -23.906,6.329c-6.562,4.218 -14.062,10.234 -22.5,18.046l0,158.438l-63.75,-0Z" style="fill-rule:nonzero;"/><path d="M720.364,688.768c-28.75,-0 -51.718,-10.781 -68.906,-32.344c-17.187,-21.562 -25.781,-51.25 -25.781,-89.062c-0,-25.313 4.609,-47.032 13.828,-65.157c9.219,-18.125 21.172,-32.109 35.859,-41.953c14.688,-9.843 30.313,-14.765 46.875,-14.765c13.125,-0 24.063,2.187 32.813,6.562c8.75,4.375 17.187,10.469 25.312,18.281l-2.343,-36.093l-0,-80.625l64.218,-0l0,329.531l-52.5,-0l-4.687,-23.906l-1.406,-0c-8.438,8.437 -18.204,15.468 -29.297,21.093c-11.094,5.625 -22.422,8.438 -33.985,8.438Zm16.407,-52.5c8.125,-0 15.468,-1.719 22.031,-5.156c6.562,-3.438 12.969,-9.219 19.219,-17.344l-0,-99.375c-6.563,-6.25 -13.36,-10.547 -20.391,-12.891c-7.031,-2.343 -13.984,-3.515 -20.859,-3.515c-8.125,-0 -15.625,2.578 -22.5,7.734c-6.875,5.156 -12.422,12.813 -16.641,22.969c-4.219,10.156 -6.328,22.734 -6.328,37.734c-0,23.438 3.984,40.938 11.953,52.5c7.969,11.563 19.141,17.344 33.516,17.344Z" style="fill-rule:nonzero;"/><path d="M1007.71,688.768c-21.875,-0 -41.641,-4.844 -59.297,-14.531c-17.656,-9.688 -31.562,-23.516 -41.719,-41.485c-10.156,-17.968 -15.234,-39.765 -15.234,-65.39c0,-25 5.156,-46.563 15.469,-64.688c10.312,-18.125 23.75,-32.187 40.312,-42.187c16.563,-10 34.063,-15 52.5,-15c21.563,-0 39.61,4.843 54.141,14.531c14.531,9.687 25.469,22.891 32.812,39.609c7.344,16.719 11.016,35.703 11.016,56.953c0,5.625 -0.312,11.172 -0.937,16.641c-0.625,5.469 -1.25,9.609 -1.875,12.422l-153.282,-0l-0.468,-42.656l101.718,-0c0,-14.688 -3.359,-26.407 -10.078,-35.157c-6.719,-8.75 -17.265,-13.125 -31.64,-13.125c-8.438,0 -16.563,2.344 -24.375,7.032c-7.813,4.687 -14.219,12.343 -19.219,22.968c-5,10.625 -7.5,24.844 -7.5,42.657c-0,17.812 3.203,31.953 9.609,42.422c6.406,10.468 14.61,18.046 24.61,22.734c10,4.687 20.625,7.031 31.875,7.031c9.375,0 18.203,-1.328 26.484,-3.984c8.281,-2.656 16.641,-6.485 25.078,-11.485l21.094,38.907c-11.563,7.812 -24.453,14.062 -38.672,18.75c-14.219,4.687 -28.359,7.031 -42.422,7.031Z" style="fill-rule:nonzero;"/><path d="M1146.46,683.143l0,-232.031l52.031,-0l4.688,40.781l1.875,-0c8.437,-15.313 18.515,-26.875 30.234,-34.688c11.719,-7.812 23.516,-11.718 35.391,-11.718c6.25,-0 11.562,0.39 15.937,1.172c4.375,0.781 8.125,1.953 11.25,3.515l-10.781,55.313c-4.062,-0.938 -7.891,-1.797 -11.484,-2.578c-3.594,-0.782 -7.891,-1.172 -12.891,-1.172c-9.062,-0 -18.437,3.281 -28.125,9.843c-9.687,6.563 -17.812,18.125 -24.375,34.688l0,136.875l-63.75,-0Z" style="fill-rule:nonzero;"/></g><g><path d="M266.692,311.268l0,-306.094l66.094,0l84.844,158.906l30.469,66.563l1.875,-0c-1.563,-16.25 -3.282,-34.063 -5.157,-53.438c-1.875,-19.375 -2.812,-37.968 -2.812,-55.781l-0,-116.25l60.937,0l0,306.094l-65.625,-0l-84.843,-158.906l-30.938,-66.563l-1.875,0c1.563,16.563 3.36,34.375 5.391,53.438c2.031,19.062 3.047,37.343 3.047,54.843l-0,117.188l-61.407,-0Z" style="fill-rule:nonzero;"/><path d="M577.005,311.268l-0,-306.094l190.312,0l0,53.906l-126.093,0l-0,76.407l107.812,-0l0,53.906l-107.812,-0l-0,121.875l-64.219,-0Z" style="fill-rule:nonzero;"/><path d="M881.224,311.268l-0,-252.188l-85.313,0l0,-53.906l235.313,0l-0,53.906l-85.782,0l0,252.188l-64.218,-0Z" style="fill-rule:nonzero;"/><path d="M9.114,686.268l0,-306.094l190.313,0l-0,53.906l-126.094,0l0,76.407l107.813,-0l-0,53.906l-107.813,-0l0,121.875l-64.219,-0Z" style="fill-rule:nonzero;"/><path d="M247.708,686.268l0,-232.031l63.75,-0l0,232.031l-63.75,-0Zm31.875,-268.125c-10.312,-0 -18.906,-3.203 -25.781,-9.609c-6.875,-6.407 -10.313,-14.61 -10.313,-24.61c0,-10 3.438,-18.203 10.313,-24.609c6.875,-6.406 15.469,-9.61 25.781,-9.61c10.625,0 19.297,3.204 26.016,9.61c6.718,6.406 10.078,14.609 10.078,24.609c-0,10 -3.36,18.203 -10.078,24.61c-6.719,6.406 -15.391,9.609 -26.016,9.609Z" style="fill-rule:nonzero;"/><path d="M375.208,686.268l0,-232.031l52.031,-0l4.688,30l1.875,-0c10,-9.688 21.015,-18.047 33.047,-25.078c12.031,-7.032 26.015,-10.547 41.953,-10.547c25,-0 43.203,8.281 54.609,24.843c11.406,16.563 17.11,39.375 17.11,68.438l-0,144.375l-64.219,-0l-0,-136.406c-0,-17.5 -2.422,-29.61 -7.266,-36.328c-4.844,-6.719 -12.734,-10.079 -23.672,-10.079c-9.375,0 -17.343,2.11 -23.906,6.329c-6.562,4.218 -14.062,10.234 -22.5,18.046l0,158.438l-63.75,-0Z" style="fill-rule:nonzero;"/><path d="M723.489,691.893c-28.75,-0 -51.718,-10.781 -68.906,-32.344c-17.187,-21.562 -25.781,-51.25 -25.781,-89.062c-0,-25.313 4.609,-47.032 13.828,-65.157c9.219,-18.125 21.172,-32.109 35.859,-41.953c14.688,-9.843 30.313,-14.765 46.875,-14.765c13.125,-0 24.063,2.187 32.813,6.562c8.75,4.375 17.187,10.469 25.312,18.281l-2.343,-36.093l-0,-80.625l64.218,-0l0,329.531l-52.5,-0l-4.687,-23.906l-1.406,-0c-8.438,8.437 -18.204,15.468 -29.297,21.093c-11.094,5.625 -22.422,8.438 -33.985,8.438Zm16.407,-52.5c8.125,-0 15.468,-1.719 22.031,-5.156c6.562,-3.438 12.969,-9.219 19.219,-17.344l-0,-99.375c-6.563,-6.25 -13.36,-10.547 -20.391,-12.891c-7.031,-2.343 -13.984,-3.515 -20.859,-3.515c-8.125,-0 -15.625,2.578 -22.5,7.734c-6.875,5.156 -12.422,12.813 -16.641,22.969c-4.219,10.156 -6.328,22.734 -6.328,37.734c-0,23.438 3.984,40.938 11.953,52.5c7.969,11.563 19.141,17.344 33.516,17.344Z" style="fill-rule:nonzero;"/><path d="M1010.83,691.893c-21.875,-0 -41.641,-4.844 -59.297,-14.531c-17.656,-9.688 -31.562,-23.516 -41.719,-41.485c-10.156,-17.968 -15.234,-39.765 -15.234,-65.39c0,-25 5.156,-46.563 15.469,-64.688c10.312,-18.125 23.75,-32.187 40.312,-42.187c16.563,-10 34.063,-15 52.5,-15c21.563,-0 39.61,4.843 54.141,14.531c14.531,9.687 25.469,22.891 32.812,39.609c7.344,16.719 11.016,35.703 11.016,56.953c0,5.625 -0.312,11.172 -0.937,16.641c-0.625,5.469 -1.25,9.609 -1.875,12.422l-153.282,-0l-0.468,-42.656l101.718,-0c0,-14.688 -3.359,-26.407 -10.078,-35.157c-6.719,-8.75 -17.265,-13.125 -31.64,-13.125c-8.438,0 -16.563,2.344 -24.375,7.032c-7.813,4.687 -14.219,12.343 -19.219,22.968c-5,10.625 -7.5,24.844 -7.5,42.657c-0,17.812 3.203,31.953 9.609,42.422c6.406,10.468 14.61,18.046 24.61,22.734c10,4.687 20.625,7.031 31.875,7.031c9.375,0 18.203,-1.328 26.484,-3.984c8.281,-2.656 16.641,-6.485 25.078,-11.485l21.094,38.907c-11.563,7.812 -24.453,14.062 -38.672,18.75c-14.219,4.687 -28.359,7.031 -42.422,7.031Z" style="fill-rule:nonzero;"/><path d="M1149.58,686.268l0,-232.031l52.031,-0l4.688,40.781l1.875,-0c8.437,-15.313 18.515,-26.875 30.234,-34.688c11.719,-7.812 23.516,-11.718 35.391,-11.718c6.25,-0 11.562,0.39 15.937,1.172c4.375,0.781 8.125,1.953 11.25,3.515l-10.781,55.313c-4.062,-0.938 -7.891,-1.797 -11.484,-2.578c-3.594,-0.782 -7.891,-1.172 -12.891,-1.172c-9.062,-0 -18.437,3.281 -28.125,9.843c-9.687,6.563 -17.812,18.125 -24.375,34.688l0,136.875l-63.75,-0Z" style="fill-rule:nonzero;"/></g><g><path d="M269.817,314.393l0,-306.094l66.094,0l84.844,158.906l30.469,66.563l1.875,-0c-1.563,-16.25 -3.282,-34.063 -5.157,-53.438c-1.875,-19.375 -2.812,-37.968 -2.812,-55.781l-0,-116.25l60.937,0l0,306.094l-65.625,-0l-84.843,-158.906l-30.938,-66.563l-1.875,0c1.563,16.563 3.36,34.375 5.391,53.438c2.031,19.062 3.047,37.343 3.047,54.843l-0,117.188l-61.407,-0Z" style="fill-rule:nonzero;"/><path d="M580.13,314.393l-0,-306.094l190.312,0l0,53.906l-126.093,0l-0,76.407l107.812,-0l0,53.906l-107.812,-0l-0,121.875l-64.219,-0Z" style="fill-rule:nonzero;"/><path d="M884.349,314.393l-0,-252.188l-85.313,0l0,-53.906l235.313,0l-0,53.906l-85.782,0l0,252.188l-64.218,-0Z" style="fill-rule:nonzero;"/><path d="M12.239,689.393l0,-306.094l190.313,0l-0,53.906l-126.094,0l0,76.407l107.813,-0l-0,53.906l-107.813,-0l0,121.875l-64.219,-0Z" style="fill-rule:nonzero;"/><path d="M250.833,689.393l0,-232.031l63.75,-0l0,232.031l-63.75,-0Zm31.875,-268.125c-10.312,-0 -18.906,-3.203 -25.781,-9.609c-6.875,-6.407 -10.313,-14.61 -10.313,-24.61c0,-10 3.438,-18.203 10.313,-24.609c6.875,-6.406 15.469,-9.61 25.781,-9.61c10.625,0 19.297,3.204 26.016,9.61c6.718,6.406 10.078,14.609 10.078,24.609c-0,10 -3.36,18.203 -10.078,24.61c-6.719,6.406 -15.391,9.609 -26.016,9.609Z" style="fill-rule:nonzero;"/><path d="M378.333,689.393l0,-232.031l52.031,-0l4.688,30l1.875,-0c10,-9.688 21.015,-18.047 33.047,-25.078c12.031,-7.032 26.015,-10.547 41.953,-10.547c25,-0 43.203,8.281 54.609,24.843c11.406,16.563 17.11,39.375 17.11,68.438l-0,144.375l-64.219,-0l-0,-136.406c-0,-17.5 -2.422,-29.61 -7.266,-36.328c-4.844,-6.719 -12.734,-10.079 -23.672,-10.079c-9.375,0 -17.343,2.11 -23.906,6.329c-6.562,4.218 -14.062,10.234 -22.5,18.046l0,158.438l-63.75,-0Z" style="fill-rule:nonzero;"/><path d="M726.614,695.018c-28.75,-0 -51.718,-10.781 -68.906,-32.344c-17.187,-21.562 -25.781,-51.25 -25.781,-89.062c-0,-25.313 4.609,-47.032 13.828,-65.157c9.219,-18.125 21.172,-32.109 35.859,-41.953c14.688,-9.843 30.313,-14.765 46.875,-14.765c13.125,-0 24.063,2.187 32.813,6.562c8.75,4.375 17.187,10.469 25.312,18.281l-2.343,-36.093l-0,-80.625l64.218,-0l0,329.531l-52.5,-0l-4.687,-23.906l-1.406,-0c-8.438,8.437 -18.204,15.468 -29.297,21.093c-11.094,5.625 -22.422,8.438 -33.985,8.438Zm16.407,-52.5c8.125,-0 15.468,-1.719 22.031,-5.156c6.562,-3.438 12.969,-9.219 19.219,-17.344l-0,-99.375c-6.563,-6.25 -13.36,-10.547 -20.391,-12.891c-7.031,-2.343 -13.984,-3.515 -20.859,-3.515c-8.125,-0 -15.625,2.578 -22.5,7.734c-6.875,5.156 -12.422,12.813 -16.641,22.969c-4.219,10.156 -6.328,22.734 -6.328,37.734c-0,23.438 3.984,40.938 11.953,52.5c7.969,11.563 19.141,17.344 33.516,17.344Z" style="fill-rule:nonzero;"/><path d="M1013.96,695.018c-21.875,-0 -41.641,-4.844 -59.297,-14.531c-17.656,-9.688 -31.562,-23.516 -41.719,-41.485c-10.156,-17.968 -15.234,-39.765 -15.234,-65.39c0,-25 5.156,-46.563 15.469,-64.688c10.312,-18.125 23.75,-32.187 40.312,-42.187c16.563,-10 34.063,-15 52.5,-15c21.563,-0 39.61,4.843 54.141,14.531c14.531,9.687 25.469,22.891 32.812,39.609c7.344,16.719 11.016,35.703 11.016,56.953c0,5.625 -0.312,11.172 -0.937,16.641c-0.625,5.469 -1.25,9.609 -1.875,12.422l-153.282,-0l-0.468,-42.656l101.718,-0c0,-14.688 -3.359,-26.407 -10.078,-35.157c-6.719,-8.75 -17.265,-13.125 -31.64,-13.125c-8.438,0 -16.563,2.344 -24.375,7.032c-7.813,4.687 -14.219,12.343 -19.219,22.968c-5,10.625 -7.5,24.844 -7.5,42.657c-0,17.812 3.203,31.953 9.609,42.422c6.406,10.468 14.61,18.046 24.61,22.734c10,4.687 20.625,7.031 31.875,7.031c9.375,0 18.203,-1.328 26.484,-3.984c8.281,-2.656 16.641,-6.485 25.078,-11.485l21.094,38.907c-11.563,7.812 -24.453,14.062 -38.672,18.75c-14.219,4.687 -28.359,7.031 -42.422,7.031Z" style="fill-rule:nonzero;"/><path d="M1152.71,689.393l0,-232.031l52.031,-0l4.688,40.781l1.875,-0c8.437,-15.313 18.515,-26.875 30.234,-34.688c11.719,-7.812 23.516,-11.718 35.391,-11.718c6.25,-0 11.562,0.39 15.937,1.172c4.375,0.781 8.125,1.953 11.25,3.515l-10.781,55.313c-4.062,-0.938 -7.891,-1.797 -11.484,-2.578c-3.594,-0.782 -7.891,-1.172 -12.891,-1.172c-9.062,-0 -18.437,3.281 -28.125,9.843c-9.687,6.563 -17.812,18.125 -24.375,34.688l0,136.875l-63.75,-0Z" style="fill-rule:nonzero;"/></g><g><path d="M269.817,314.393l0,-306.094l66.094,0l84.844,158.906l30.469,66.563l1.875,-0c-1.563,-16.25 -3.282,-34.063 -5.157,-53.438c-1.875,-19.375 -2.812,-37.968 -2.812,-55.781l-0,-116.25l60.937,0l0,306.094l-65.625,-0l-84.843,-158.906l-30.938,-66.563l-1.875,0c1.563,16.563 3.36,34.375 5.391,53.438c2.031,19.062 3.047,37.343 3.047,54.843l-0,117.188l-61.407,-0Z" style="fill-rule:nonzero;"/><path d="M580.13,314.393l-0,-306.094l190.312,0l0,53.906l-126.093,0l-0,76.407l107.812,-0l0,53.906l-107.812,-0l-0,121.875l-64.219,-0Z" style="fill-rule:nonzero;"/><path d="M884.349,314.393l-0,-252.188l-85.313,0l0,-53.906l235.313,0l-0,53.906l-85.782,0l0,252.188l-64.218,-0Z" style="fill-rule:nonzero;"/><path d="M12.239,689.393l0,-306.094l190.313,0l-0,53.906l-126.094,0l0,76.407l107.813,-0l-0,53.906l-107.813,-0l0,121.875l-64.219,-0Z" style="fill-rule:nonzero;"/><path d="M250.833,689.393l0,-232.031l63.75,-0l0,232.031l-63.75,-0Zm31.875,-268.125c-10.312,-0 -18.906,-3.203 -25.781,-9.609c-6.875,-6.407 -10.313,-14.61 -10.313,-24.61c0,-10 3.438,-18.203 10.313,-24.609c6.875,-6.406 15.469,-9.61 25.781,-9.61c10.625,0 19.297,3.204 26.016,9.61c6.718,6.406 10.078,14.609 10.078,24.609c-0,10 -3.36,18.203 -10.078,24.61c-6.719,6.406 -15.391,9.609 -26.016,9.609Z" style="fill-rule:nonzero;"/><path d="M378.333,689.393l0,-232.031l52.031,-0l4.688,30l1.875,-0c10,-9.688 21.015,-18.047 33.047,-25.078c12.031,-7.032 26.015,-10.547 41.953,-10.547c25,-0 43.203,8.281 54.609,24.843c11.406,16.563 17.11,39.375 17.11,68.438l-0,144.375l-64.219,-0l-0,-136.406c-0,-17.5 -2.422,-29.61 -7.266,-36.328c-4.844,-6.719 -12.734,-10.079 -23.672,-10.079c-9.375,0 -17.343,2.11 -23.906,6.329c-6.562,4.218 -14.062,10.234 -22.5,18.046l0,158.438l-63.75,-0Z" style="fill-rule:nonzero;"/><path d="M726.614,695.018c-28.75,-0 -51.718,-10.781 -68.906,-32.344c-17.187,-21.562 -25.781,-51.25 -25.781,-89.062c-0,-25.313 4.609,-47.032 13.828,-65.157c9.219,-18.125 21.172,-32.109 35.859,-41.953c14.688,-9.843 30.313,-14.765 46.875,-14.765c13.125,-0 24.063,2.187 32.813,6.562c8.75,4.375 17.187,10.469 25.312,18.281l-2.343,-36.093l-0,-80.625l64.218,-0l0,329.531l-52.5,-0l-4.687,-23.906l-1.406,-0c-8.438,8.437 -18.204,15.468 -29.297,21.093c-11.094,5.625 -22.422,8.438 -33.985,8.438Zm16.407,-52.5c8.125,-0 15.468,-1.719 22.031,-5.156c6.562,-3.438 12.969,-9.219 19.219,-17.344l-0,-99.375c-6.563,-6.25 -13.36,-10.547 -20.391,-12.891c-7.031,-2.343 -13.984,-3.515 -20.859,-3.515c-8.125,-0 -15.625,2.578 -22.5,7.734c-6.875,5.156 -12.422,12.813 -16.641,22.969c-4.219,10.156 -6.328,22.734 -6.328,37.734c-0,23.438 3.984,40.938 11.953,52.5c7.969,11.563 19.141,17.344 33.516,17.344Z" style="fill-rule:nonzero;"/><path d="M1013.96,695.018c-21.875,-0 -41.641,-4.844 -59.297,-14.531c-17.656,-9.688 -31.562,-23.516 -41.719,-41.485c-10.156,-17.968 -15.234,-39.765 -15.234,-65.39c0,-25 5.156,-46.563 15.469,-64.688c10.312,-18.125 23.75,-32.187 40.312,-42.187c16.563,-10 34.063,-15 52.5,-15c21.563,-0 39.61,4.843 54.141,14.531c14.531,9.687 25.469,22.891 32.812,39.609c7.344,16.719 11.016,35.703 11.016,56.953c0,5.625 -0.312,11.172 -0.937,16.641c-0.625,5.469 -1.25,9.609 -1.875,12.422l-153.282,-0l-0.468,-42.656l101.718,-0c0,-14.688 -3.359,-26.407 -10.078,-35.157c-6.719,-8.75 -17.265,-13.125 -31.64,-13.125c-8.438,0 -16.563,2.344 -24.375,7.032c-7.813,4.687 -14.219,12.343 -19.219,22.968c-5,10.625 -7.5,24.844 -7.5,42.657c-0,17.812 3.203,31.953 9.609,42.422c6.406,10.468 14.61,18.046 24.61,22.734c10,4.687 20.625,7.031 31.875,7.031c9.375,0 18.203,-1.328 26.484,-3.984c8.281,-2.656 16.641,-6.485 25.078,-11.485l21.094,38.907c-11.563,7.812 -24.453,14.062 -38.672,18.75c-14.219,4.687 -28.359,7.031 -42.422,7.031Z" style="fill-rule:nonzero;"/><path d="M1152.71,689.393l0,-232.031l52.031,-0l4.688,40.781l1.875,-0c8.437,-15.313 18.515,-26.875 30.234,-34.688c11.719,-7.812 23.516,-11.718 35.391,-11.718c6.25,-0 11.562,0.39 15.937,1.172c4.375,0.781 8.125,1.953 11.25,3.515l-10.781,55.313c-4.062,-0.938 -7.891,-1.797 -11.484,-2.578c-3.594,-0.782 -7.891,-1.172 -12.891,-1.172c-9.062,-0 -18.437,3.281 -28.125,9.843c-9.687,6.563 -17.812,18.125 -24.375,34.688l0,136.875l-63.75,-0Z" style="fill-rule:nonzero;"/></g><g><path d="M269.817,314.393l0,-306.094l66.094,0l84.844,158.906l30.469,66.563l1.875,-0c-1.563,-16.25 -3.282,-34.063 -5.157,-53.438c-1.875,-19.375 -2.812,-37.968 -2.812,-55.781l-0,-116.25l60.937,0l0,306.094l-65.625,-0l-84.843,-158.906l-30.938,-66.563l-1.875,0c1.563,16.563 3.36,34.375 5.391,53.438c2.031,19.062 3.047,37.343 3.047,54.843l-0,117.188l-61.407,-0Z" style="fill-rule:nonzero;"/><path d="M580.13,314.393l-0,-306.094l190.312,0l0,53.906l-126.093,0l-0,76.407l107.812,-0l0,53.906l-107.812,-0l-0,121.875l-64.219,-0Z" style="fill-rule:nonzero;"/><path d="M884.349,314.393l-0,-252.188l-85.313,0l0,-53.906l235.313,0l-0,53.906l-85.782,0l0,252.188l-64.218,-0Z" style="fill-rule:nonzero;"/><path d="M12.239,689.393l0,-306.094l190.313,0l-0,53.906l-126.094,0l0,76.407l107.813,-0l-0,53.906l-107.813,-0l0,121.875l-64.219,-0Z" style="fill-rule:nonzero;"/><path d="M250.833,689.393l0,-232.031l63.75,-0l0,232.031l-63.75,-0Zm31.875,-268.125c-10.312,-0 -18.906,-3.203 -25.781,-9.609c-6.875,-6.407 -10.313,-14.61 -10.313,-24.61c0,-10 3.438,-18.203 10.313,-24.609c6.875,-6.406 15.469,-9.61 25.781,-9.61c10.625,0 19.297,3.204 26.016,9.61c6.718,6.406 10.078,14.609 10.078,24.609c-0,10 -3.36,18.203 -10.078,24.61c-6.719,6.406 -15.391,9.609 -26.016,9.609Z" style="fill-rule:nonzero;"/><path d="M378.333,689.393l0,-232.031l52.031,-0l4.688,30l1.875,-0c10,-9.688 21.015,-18.047 33.047,-25.078c12.031,-7.032 26.015,-10.547 41.953,-10.547c25,-0 43.203,8.281 54.609,24.843c11.406,16.563 17.11,39.375 17.11,68.438l-0,144.375l-64.219,-0l-0,-136.406c-0,-17.5 -2.422,-29.61 -7.266,-36.328c-4.844,-6.719 -12.734,-10.079 -23.672,-10.079c-9.375,0 -17.343,2.11 -23.906,6.329c-6.562,4.218 -14.062,10.234 -22.5,18.046l0,158.438l-63.75,-0Z" style="fill-rule:nonzero;"/><path d="M726.614,695.018c-28.75,-0 -51.718,-10.781 -68.906,-32.344c-17.187,-21.562 -25.781,-51.25 -25.781,-89.062c-0,-25.313 4.609,-47.032 13.828,-65.157c9.219,-18.125 21.172,-32.109 35.859,-41.953c14.688,-9.843 30.313,-14.765 46.875,-14.765c13.125,-0 24.063,2.187 32.813,6.562c8.75,4.375 17.187,10.469 25.312,18.281l-2.343,-36.093l-0,-80.625l64.218,-0l0,329.531l-52.5,-0l-4.687,-23.906l-1.406,-0c-8.438,8.437 -18.204,15.468 -29.297,21.093c-11.094,5.625 -22.422,8.438 -33.985,8.438Zm16.407,-52.5c8.125,-0 15.468,-1.719 22.031,-5.156c6.562,-3.438 12.969,-9.219 19.219,-17.344l-0,-99.375c-6.563,-6.25 -13.36,-10.547 -20.391,-12.891c-7.031,-2.343 -13.984,-3.515 -20.859,-3.515c-8.125,-0 -15.625,2.578 -22.5,7.734c-6.875,5.156 -12.422,12.813 -16.641,22.969c-4.219,10.156 -6.328,22.734 -6.328,37.734c-0,23.438 3.984,40.938 11.953,52.5c7.969,11.563 19.141,17.344 33.516,17.344Z" style="fill-rule:nonzero;"/><path d="M1013.96,695.018c-21.875,-0 -41.641,-4.844 -59.297,-14.531c-17.656,-9.688 -31.562,-23.516 -41.719,-41.485c-10.156,-17.968 -15.234,-39.765 -15.234,-65.39c0,-25 5.156,-46.563 15.469,-64.688c10.312,-18.125 23.75,-32.187 40.312,-42.187c16.563,-10 34.063,-15 52.5,-15c21.563,-0 39.61,4.843 54.141,14.531c14.531,9.687 25.469,22.891 32.812,39.609c7.344,16.719 11.016,35.703 11.016,56.953c0,5.625 -0.312,11.172 -0.937,16.641c-0.625,5.469 -1.25,9.609 -1.875,12.422l-153.282,-0l-0.468,-42.656l101.718,-0c0,-14.688 -3.359,-26.407 -10.078,-35.157c-6.719,-8.75 -17.265,-13.125 -31.64,-13.125c-8.438,0 -16.563,2.344 -24.375,7.032c-7.813,4.687 -14.219,12.343 -19.219,22.968c-5,10.625 -7.5,24.844 -7.5,42.657c-0,17.812 3.203,31.953 9.609,42.422c6.406,10.468 14.61,18.046 24.61,22.734c10,4.687 20.625,7.031 31.875,7.031c9.375,0 18.203,-1.328 26.484,-3.984c8.281,-2.656 16.641,-6.485 25.078,-11.485l21.094,38.907c-11.563,7.812 -24.453,14.062 -38.672,18.75c-14.219,4.687 -28.359,7.031 -42.422,7.031Z" style="fill-rule:nonzero;"/><path d="M1152.71,689.393l0,-232.031l52.031,-0l4.688,40.781l1.875,-0c8.437,-15.313 18.515,-26.875 30.234,-34.688c11.719,-7.812 23.516,-11.718 35.391,-11.718c6.25,-0 11.562,0.39 15.937,1.172c4.375,0.781 8.125,1.953 11.25,3.515l-10.781,55.313c-4.062,-0.938 -7.891,-1.797 -11.484,-2.578c-3.594,-0.782 -7.891,-1.172 -12.891,-1.172c-9.062,-0 -18.437,3.281 -28.125,9.843c-9.687,6.563 -17.812,18.125 -24.375,34.688l0,136.875l-63.75,-0Z" style="fill-rule:nonzero;"/></g><g><path d="M272.942,317.518l0,-306.094l66.094,0l84.844,158.906l30.469,66.563l1.875,-0c-1.563,-16.25 -3.282,-34.063 -5.157,-53.438c-1.875,-19.375 -2.812,-37.968 -2.812,-55.781l-0,-116.25l60.937,0l0,306.094l-65.625,-0l-84.843,-158.906l-30.938,-66.563l-1.875,0c1.563,16.563 3.36,34.375 5.391,53.438c2.031,19.062 3.047,37.343 3.047,54.843l-0,117.188l-61.407,-0Z" style="fill-rule:nonzero;"/><path d="M583.255,317.518l-0,-306.094l190.312,0l0,53.906l-126.093,0l-0,76.407l107.812,-0l0,53.906l-107.812,-0l-0,121.875l-64.219,-0Z" style="fill-rule:nonzero;"/><path d="M887.474,317.518l-0,-252.188l-85.313,0l0,-53.906l235.313,0l-0,53.906l-85.782,0l0,252.188l-64.218,-0Z" style="fill-rule:nonzero;"/><path d="M15.364,692.518l0,-306.094l190.313,0l-0,53.906l-126.094,0l0,76.407l107.813,-0l-0,53.906l-107.813,-0l0,121.875l-64.219,-0Z" style="fill-rule:nonzero;"/><path d="M253.958,692.518l0,-232.031l63.75,-0l0,232.031l-63.75,-0Zm31.875,-268.125c-10.312,-0 -18.906,-3.203 -25.781,-9.609c-6.875,-6.407 -10.313,-14.61 -10.313,-24.61c0,-10 3.438,-18.203 10.313,-24.609c6.875,-6.406 15.469,-9.61 25.781,-9.61c10.625,0 19.297,3.204 26.016,9.61c6.718,6.406 10.078,14.609 10.078,24.609c-0,10 -3.36,18.203 -10.078,24.61c-6.719,6.406 -15.391,9.609 -26.016,9.609Z" style="fill-rule:nonzero;"/><path d="M381.458,692.518l0,-232.031l52.031,-0l4.688,30l1.875,-0c10,-9.688 21.015,-18.047 33.047,-25.078c12.031,-7.032 26.015,-10.547 41.953,-10.547c25,-0 43.203,8.281 54.609,24.843c11.406,16.563 17.11,39.375 17.11,68.438l-0,144.375l-64.219,-0l-0,-136.406c-0,-17.5 -2.422,-29.61 -7.266,-36.328c-4.844,-6.719 -12.734,-10.079 -23.672,-10.079c-9.375,0 -17.343,2.11 -23.906,6.329c-6.562,4.218 -14.062,10.234 -22.5,18.046l0,158.438l-63.75,-0Z" style="fill-rule:nonzero;"/><path d="M729.739,698.143c-28.75,-0 -51.718,-10.781 -68.906,-32.344c-17.187,-21.562 -25.781,-51.25 -25.781,-89.062c-0,-25.313 4.609,-47.032 13.828,-65.157c9.219,-18.125 21.172,-32.109 35.859,-41.953c14.688,-9.843 30.313,-14.765 46.875,-14.765c13.125,-0 24.063,2.187 32.813,6.562c8.75,4.375 17.187,10.469 25.312,18.281l-2.343,-36.093l-0,-80.625l64.218,-0l0,329.531l-52.5,-0l-4.687,-23.906l-1.406,-0c-8.438,8.437 -18.204,15.468 -29.297,21.093c-11.094,5.625 -22.422,8.438 -33.985,8.438Zm16.407,-52.5c8.125,-0 15.468,-1.719 22.031,-5.156c6.562,-3.438 12.969,-9.219 19.219,-17.344l-0,-99.375c-6.563,-6.25 -13.36,-10.547 -20.391,-12.891c-7.031,-2.343 -13.984,-3.515 -20.859,-3.515c-8.125,-0 -15.625,2.578 -22.5,7.734c-6.875,5.156 -12.422,12.813 -16.641,22.969c-4.219,10.156 -6.328,22.734 -6.328,37.734c-0,23.438 3.984,40.938 11.953,52.5c7.969,11.563 19.141,17.344 33.516,17.344Z" style="fill-rule:nonzero;"/><path d="M1017.08,698.143c-21.875,-0 -41.641,-4.844 -59.297,-14.531c-17.656,-9.688 -31.562,-23.516 -41.719,-41.485c-10.156,-17.968 -15.234,-39.765 -15.234,-65.39c0,-25 5.156,-46.563 15.469,-64.688c10.312,-18.125 23.75,-32.187 40.312,-42.187c16.563,-10 34.063,-15 52.5,-15c21.563,-0 39.61,4.843 54.141,14.531c14.531,9.687 25.469,22.891 32.812,39.609c7.344,16.719 11.016,35.703 11.016,56.953c0,5.625 -0.312,11.172 -0.937,16.641c-0.625,5.469 -1.25,9.609 -1.875,12.422l-153.282,-0l-0.468,-42.656l101.718,-0c0,-14.688 -3.359,-26.407 -10.078,-35.157c-6.719,-8.75 -17.265,-13.125 -31.64,-13.125c-8.438,0 -16.563,2.344 -24.375,7.032c-7.813,4.687 -14.219,12.343 -19.219,22.968c-5,10.625 -7.5,24.844 -7.5,42.657c-0,17.812 3.203,31.953 9.609,42.422c6.406,10.468 14.61,18.046 24.61,22.734c10,4.687 20.625,7.031 31.875,7.031c9.375,0 18.203,-1.328 26.484,-3.984c8.281,-2.656 16.641,-6.485 25.078,-11.485l21.094,38.907c-11.563,7.812 -24.453,14.062 -38.672,18.75c-14.219,4.687 -28.359,7.031 -42.422,7.031Z" style="fill-rule:nonzero;"/><path d="M1155.83,692.518l0,-232.031l52.031,-0l4.688,40.781l1.875,-0c8.437,-15.313 18.515,-26.875 30.234,-34.688c11.719,-7.812 23.516,-11.718 35.391,-11.718c6.25,-0 11.562,0.39 15.937,1.172c4.375,0.781 8.125,1.953 11.25,3.515l-10.781,55.313c-4.062,-0.938 -7.891,-1.797 -11.484,-2.578c-3.594,-0.782 -7.891,-1.172 -12.891,-1.172c-9.062,-0 -18.437,3.281 -28.125,9.843c-9.687,6.563 -17.812,18.125 -24.375,34.688l0,136.875l-63.75,-0Z" style="fill-rule:nonzero;"/></g><g><path d="M269.817,314.393l0,-306.094l66.094,0l84.844,158.906l30.469,66.563l1.875,-0c-1.563,-16.25 -3.282,-34.063 -5.157,-53.438c-1.875,-19.375 -2.812,-37.968 -2.812,-55.781l-0,-116.25l60.937,0l0,306.094l-65.625,-0l-84.843,-158.906l-30.938,-66.563l-1.875,0c1.563,16.563 3.36,34.375 5.391,53.438c2.031,19.062 3.047,37.343 3.047,54.843l-0,117.188l-61.407,-0Z" style="fill-rule:nonzero;"/><path d="M580.13,314.393l-0,-306.094l190.312,0l0,53.906l-126.093,0l-0,76.407l107.812,-0l0,53.906l-107.812,-0l-0,121.875l-64.219,-0Z" style="fill-rule:nonzero;"/><path d="M884.349,314.393l-0,-252.188l-85.313,0l0,-53.906l235.313,0l-0,53.906l-85.782,0l0,252.188l-64.218,-0Z" style="fill-rule:nonzero;"/><path d="M12.239,689.393l0,-306.094l190.313,0l-0,53.906l-126.094,0l0,76.407l107.813,-0l-0,53.906l-107.813,-0l0,121.875l-64.219,-0Z" style="fill-rule:nonzero;"/><path d="M250.833,689.393l0,-232.031l63.75,-0l0,232.031l-63.75,-0Zm31.875,-268.125c-10.312,-0 -18.906,-3.203 -25.781,-9.609c-6.875,-6.407 -10.313,-14.61 -10.313,-24.61c0,-10 3.438,-18.203 10.313,-24.609c6.875,-6.406 15.469,-9.61 25.781,-9.61c10.625,0 19.297,3.204 26.016,9.61c6.718,6.406 10.078,14.609 10.078,24.609c-0,10 -3.36,18.203 -10.078,24.61c-6.719,6.406 -15.391,9.609 -26.016,9.609Z" style="fill-rule:nonzero;"/><path d="M378.333,689.393l0,-232.031l52.031,-0l4.688,30l1.875,-0c10,-9.688 21.015,-18.047 33.047,-25.078c12.031,-7.032 26.015,-10.547 41.953,-10.547c25,-0 43.203,8.281 54.609,24.843c11.406,16.563 17.11,39.375 17.11,68.438l-0,144.375l-64.219,-0l-0,-136.406c-0,-17.5 -2.422,-29.61 -7.266,-36.328c-4.844,-6.719 -12.734,-10.079 -23.672,-10.079c-9.375,0 -17.343,2.11 -23.906,6.329c-6.562,4.218 -14.062,10.234 -22.5,18.046l0,158.438l-63.75,-0Z" style="fill-rule:nonzero;"/><path d="M726.614,695.018c-28.75,-0 -51.718,-10.781 -68.906,-32.344c-17.187,-21.562 -25.781,-51.25 -25.781,-89.062c-0,-25.313 4.609,-47.032 13.828,-65.157c9.219,-18.125 21.172,-32.109 35.859,-41.953c14.688,-9.843 30.313,-14.765 46.875,-14.765c13.125,-0 24.063,2.187 32.813,6.562c8.75,4.375 17.187,10.469 25.312,18.281l-2.343,-36.093l-0,-80.625l64.218,-0l0,329.531l-52.5,-0l-4.687,-23.906l-1.406,-0c-8.438,8.437 -18.204,15.468 -29.297,21.093c-11.094,5.625 -22.422,8.438 -33.985,8.438Zm16.407,-52.5c8.125,-0 15.468,-1.719 22.031,-5.156c6.562,-3.438 12.969,-9.219 19.219,-17.344l-0,-99.375c-6.563,-6.25 -13.36,-10.547 -20.391,-12.891c-7.031,-2.343 -13.984,-3.515 -20.859,-3.515c-8.125,-0 -15.625,2.578 -22.5,7.734c-6.875,5.156 -12.422,12.813 -16.641,22.969c-4.219,10.156 -6.328,22.734 -6.328,37.734c-0,23.438 3.984,40.938 11.953,52.5c7.969,11.563 19.141,17.344 33.516,17.344Z" style="fill-rule:nonzero;"/><path d="M1013.96,695.018c-21.875,-0 -41.641,-4.844 -59.297,-14.531c-17.656,-9.688 -31.562,-23.516 -41.719,-41.485c-10.156,-17.968 -15.234,-39.765 -15.234,-65.39c0,-25 5.156,-46.563 15.469,-64.688c10.312,-18.125 23.75,-32.187 40.312,-42.187c16.563,-10 34.063,-15 52.5,-15c21.563,-0 39.61,4.843 54.141,14.531c14.531,9.687 25.469,22.891 32.812,39.609c7.344,16.719 11.016,35.703 11.016,56.953c0,5.625 -0.312,11.172 -0.937,16.641c-0.625,5.469 -1.25,9.609 -1.875,12.422l-153.282,-0l-0.468,-42.656l101.718,-0c0,-14.688 -3.359,-26.407 -10.078,-35.157c-6.719,-8.75 -17.265,-13.125 -31.64,-13.125c-8.438,0 -16.563,2.344 -24.375,7.032c-7.813,4.687 -14.219,12.343 -19.219,22.968c-5,10.625 -7.5,24.844 -7.5,42.657c-0,17.812 3.203,31.953 9.609,42.422c6.406,10.468 14.61,18.046 24.61,22.734c10,4.687 20.625,7.031 31.875,7.031c9.375,0 18.203,-1.328 26.484,-3.984c8.281,-2.656 16.641,-6.485 25.078,-11.485l21.094,38.907c-11.563,7.812 -24.453,14.062 -38.672,18.75c-14.219,4.687 -28.359,7.031 -42.422,7.031Z" style="fill-rule:nonzero;"/><path d="M1152.71,689.393l0,-232.031l52.031,-0l4.688,40.781l1.875,-0c8.437,-15.313 18.515,-26.875 30.234,-34.688c11.719,-7.812 23.516,-11.718 35.391,-11.718c6.25,-0 11.562,0.39 15.937,1.172c4.375,0.781 8.125,1.953 11.25,3.515l-10.781,55.313c-4.062,-0.938 -7.891,-1.797 -11.484,-2.578c-3.594,-0.782 -7.891,-1.172 -12.891,-1.172c-9.062,-0 -18.437,3.281 -28.125,9.843c-9.687,6.563 -17.812,18.125 -24.375,34.688l0,136.875l-63.75,-0Z" style="fill-rule:nonzero;"/></g><g><path d="M269.817,311.268l0,-306.094l66.094,0l84.844,158.906l30.469,66.563l1.875,-0c-1.563,-16.25 -3.282,-34.063 -5.157,-53.438c-1.875,-19.375 -2.812,-37.968 -2.812,-55.781l-0,-116.25l60.937,0l0,306.094l-65.625,-0l-84.843,-158.906l-30.938,-66.563l-1.875,0c1.563,16.563 3.36,34.375 5.391,53.438c2.031,19.062 3.047,37.343 3.047,54.843l-0,117.188l-61.407,-0Z" style="fill-rule:nonzero;"/><path d="M580.13,311.268l-0,-306.094l190.312,0l0,53.906l-126.093,0l-0,76.407l107.812,-0l0,53.906l-107.812,-0l-0,121.875l-64.219,-0Z" style="fill-rule:nonzero;"/><path d="M884.349,311.268l-0,-252.188l-85.313,0l0,-53.906l235.313,0l-0,53.906l-85.782,0l0,252.188l-64.218,-0Z" style="fill-rule:nonzero;"/><path d="M12.239,686.268l0,-306.094l190.313,0l-0,53.906l-126.094,0l0,76.407l107.813,-0l-0,53.906l-107.813,-0l0,121.875l-64.219,-0Z" style="fill-rule:nonzero;"/><path d="M250.833,686.268l0,-232.031l63.75,-0l0,232.031l-63.75,-0Zm31.875,-268.125c-10.312,-0 -18.906,-3.203 -25.781,-9.609c-6.875,-6.407 -10.313,-14.61 -10.313,-24.61c0,-10 3.438,-18.203 10.313,-24.609c6.875,-6.406 15.469,-9.61 25.781,-9.61c10.625,0 19.297,3.204 26.016,9.61c6.718,6.406 10.078,14.609 10.078,24.609c-0,10 -3.36,18.203 -10.078,24.61c-6.719,6.406 -15.391,9.609 -26.016,9.609Z" style="fill-rule:nonzero;"/><path d="M378.333,686.268l0,-232.031l52.031,-0l4.688,30l1.875,-0c10,-9.688 21.015,-18.047 33.047,-25.078c12.031,-7.032 26.015,-10.547 41.953,-10.547c25,-0 43.203,8.281 54.609,24.843c11.406,16.563 17.11,39.375 17.11,68.438l-0,144.375l-64.219,-0l-0,-136.406c-0,-17.5 -2.422,-29.61 -7.266,-36.328c-4.844,-6.719 -12.734,-10.079 -23.672,-10.079c-9.375,0 -17.343,2.11 -23.906,6.329c-6.562,4.218 -14.062,10.234 -22.5,18.046l0,158.438l-63.75,-0Z" style="fill-rule:nonzero;"/><path d="M726.614,691.893c-28.75,-0 -51.718,-10.781 -68.906,-32.344c-17.187,-21.562 -25.781,-51.25 -25.781,-89.062c-0,-25.313 4.609,-47.032 13.828,-65.157c9.219,-18.125 21.172,-32.109 35.859,-41.953c14.688,-9.843 30.313,-14.765 46.875,-14.765c13.125,-0 24.063,2.187 32.813,6.562c8.75,4.375 17.187,10.469 25.312,18.281l-2.343,-36.093l-0,-80.625l64.218,-0l0,329.531l-52.5,-0l-4.687,-23.906l-1.406,-0c-8.438,8.437 -18.204,15.468 -29.297,21.093c-11.094,5.625 -22.422,8.438 -33.985,8.438Zm16.407,-52.5c8.125,-0 15.468,-1.719 22.031,-5.156c6.562,-3.438 12.969,-9.219 19.219,-17.344l-0,-99.375c-6.563,-6.25 -13.36,-10.547 -20.391,-12.891c-7.031,-2.343 -13.984,-3.515 -20.859,-3.515c-8.125,-0 -15.625,2.578 -22.5,7.734c-6.875,5.156 -12.422,12.813 -16.641,22.969c-4.219,10.156 -6.328,22.734 -6.328,37.734c-0,23.438 3.984,40.938 11.953,52.5c7.969,11.563 19.141,17.344 33.516,17.344Z" style="fill-rule:nonzero;"/><path d="M1013.96,691.893c-21.875,-0 -41.641,-4.844 -59.297,-14.531c-17.656,-9.688 -31.562,-23.516 -41.719,-41.485c-10.156,-17.968 -15.234,-39.765 -15.234,-65.39c0,-25 5.156,-46.563 15.469,-64.688c10.312,-18.125 23.75,-32.187 40.312,-42.187c16.563,-10 34.063,-15 52.5,-15c21.563,-0 39.61,4.843 54.141,14.531c14.531,9.687 25.469,22.891 32.812,39.609c7.344,16.719 11.016,35.703 11.016,56.953c0,5.625 -0.312,11.172 -0.937,16.641c-0.625,5.469 -1.25,9.609 -1.875,12.422l-153.282,-0l-0.468,-42.656l101.718,-0c0,-14.688 -3.359,-26.407 -10.078,-35.157c-6.719,-8.75 -17.265,-13.125 -31.64,-13.125c-8.438,0 -16.563,2.344 -24.375,7.032c-7.813,4.687 -14.219,12.343 -19.219,22.968c-5,10.625 -7.5,24.844 -7.5,42.657c-0,17.812 3.203,31.953 9.609,42.422c6.406,10.468 14.61,18.046 24.61,22.734c10,4.687 20.625,7.031 31.875,7.031c9.375,0 18.203,-1.328 26.484,-3.984c8.281,-2.656 16.641,-6.485 25.078,-11.485l21.094,38.907c-11.563,7.812 -24.453,14.062 -38.672,18.75c-14.219,4.687 -28.359,7.031 -42.422,7.031Z" style="fill-rule:nonzero;"/><path d="M1152.71,686.268l0,-232.031l52.031,-0l4.688,40.781l1.875,-0c8.437,-15.313 18.515,-26.875 30.234,-34.688c11.719,-7.812 23.516,-11.718 35.391,-11.718c6.25,-0 11.562,0.39 15.937,1.172c4.375,0.781 8.125,1.953 11.25,3.515l-10.781,55.313c-4.062,-0.938 -7.891,-1.797 -11.484,-2.578c-3.594,-0.782 -7.891,-1.172 -12.891,-1.172c-9.062,-0 -18.437,3.281 -28.125,9.843c-9.687,6.563 -17.812,18.125 -24.375,34.688l0,136.875l-63.75,-0Z" style="fill-rule:nonzero;"/></g><g><path d="M269.817,314.393l0,-306.094l66.094,0l84.844,158.906l30.469,66.563l1.875,-0c-1.563,-16.25 -3.282,-34.063 -5.157,-53.438c-1.875,-19.375 -2.812,-37.968 -2.812,-55.781l-0,-116.25l60.937,0l0,306.094l-65.625,-0l-84.843,-158.906l-30.938,-66.563l-1.875,0c1.563,16.563 3.36,34.375 5.391,53.438c2.031,19.062 3.047,37.343 3.047,54.843l-0,117.188l-61.407,-0Z" style="fill-rule:nonzero;"/><path d="M580.13,314.393l-0,-306.094l190.312,0l0,53.906l-126.093,0l-0,76.407l107.812,-0l0,53.906l-107.812,-0l-0,121.875l-64.219,-0Z" style="fill-rule:nonzero;"/><path d="M884.349,314.393l-0,-252.188l-85.313,0l0,-53.906l235.313,0l-0,53.906l-85.782,0l0,252.188l-64.218,-0Z" style="fill-rule:nonzero;"/><path d="M12.239,689.393l0,-306.094l190.313,0l-0,53.906l-126.094,0l0,76.407l107.813,-0l-0,53.906l-107.813,-0l0,121.875l-64.219,-0Z" style="fill-rule:nonzero;"/><path d="M250.833,689.393l0,-232.031l63.75,-0l0,232.031l-63.75,-0Zm31.875,-268.125c-10.312,-0 -18.906,-3.203 -25.781,-9.609c-6.875,-6.407 -10.313,-14.61 -10.313,-24.61c0,-10 3.438,-18.203 10.313,-24.609c6.875,-6.406 15.469,-9.61 25.781,-9.61c10.625,0 19.297,3.204 26.016,9.61c6.718,6.406 10.078,14.609 10.078,24.609c-0,10 -3.36,18.203 -10.078,24.61c-6.719,6.406 -15.391,9.609 -26.016,9.609Z" style="fill-rule:nonzero;"/><path d="M378.333,689.393l0,-232.031l52.031,-0l4.688,30l1.875,-0c10,-9.688 21.015,-18.047 33.047,-25.078c12.031,-7.032 26.015,-10.547 41.953,-10.547c25,-0 43.203,8.281 54.609,24.843c11.406,16.563 17.11,39.375 17.11,68.438l-0,144.375l-64.219,-0l-0,-136.406c-0,-17.5 -2.422,-29.61 -7.266,-36.328c-4.844,-6.719 -12.734,-10.079 -23.672,-10.079c-9.375,0 -17.343,2.11 -23.906,6.329c-6.562,4.218 -14.062,10.234 -22.5,18.046l0,158.438l-63.75,-0Z" style="fill-rule:nonzero;"/><path d="M726.614,695.018c-28.75,-0 -51.718,-10.781 -68.906,-32.344c-17.187,-21.562 -25.781,-51.25 -25.781,-89.062c-0,-25.313 4.609,-47.032 13.828,-65.157c9.219,-18.125 21.172,-32.109 35.859,-41.953c14.688,-9.843 30.313,-14.765 46.875,-14.765c13.125,-0 24.063,2.187 32.813,6.562c8.75,4.375 17.187,10.469 25.312,18.281l-2.343,-36.093l-0,-80.625l64.218,-0l0,329.531l-52.5,-0l-4.687,-23.906l-1.406,-0c-8.438,8.437 -18.204,15.468 -29.297,21.093c-11.094,5.625 -22.422,8.438 -33.985,8.438Zm16.407,-52.5c8.125,-0 15.468,-1.719 22.031,-5.156c6.562,-3.438 12.969,-9.219 19.219,-17.344l-0,-99.375c-6.563,-6.25 -13.36,-10.547 -20.391,-12.891c-7.031,-2.343 -13.984,-3.515 -20.859,-3.515c-8.125,-0 -15.625,2.578 -22.5,7.734c-6.875,5.156 -12.422,12.813 -16.641,22.969c-4.219,10.156 -6.328,22.734 -6.328,37.734c-0,23.438 3.984,40.938 11.953,52.5c7.969,11.563 19.141,17.344 33.516,17.344Z" style="fill-rule:nonzero;"/><path d="M1013.96,695.018c-21.875,-0 -41.641,-4.844 -59.297,-14.531c-17.656,-9.688 -31.562,-23.516 -41.719,-41.485c-10.156,-17.968 -15.234,-39.765 -15.234,-65.39c0,-25 5.156,-46.563 15.469,-64.688c10.312,-18.125 23.75,-32.187 40.312,-42.187c16.563,-10 34.063,-15 52.5,-15c21.563,-0 39.61,4.843 54.141,14.531c14.531,9.687 25.469,22.891 32.812,39.609c7.344,16.719 11.016,35.703 11.016,56.953c0,5.625 -0.312,11.172 -0.937,16.641c-0.625,5.469 -1.25,9.609 -1.875,12.422l-153.282,-0l-0.468,-42.656l101.718,-0c0,-14.688 -3.359,-26.407 -10.078,-35.157c-6.719,-8.75 -17.265,-13.125 -31.64,-13.125c-8.438,0 -16.563,2.344 -24.375,7.032c-7.813,4.687 -14.219,12.343 -19.219,22.968c-5,10.625 -7.5,24.844 -7.5,42.657c-0,17.812 3.203,31.953 9.609,42.422c6.406,10.468 14.61,18.046 24.61,22.734c10,4.687 20.625,7.031 31.875,7.031c9.375,0 18.203,-1.328 26.484,-3.984c8.281,-2.656 16.641,-6.485 25.078,-11.485l21.094,38.907c-11.563,7.812 -24.453,14.062 -38.672,18.75c-14.219,4.687 -28.359,7.031 -42.422,7.031Z" style="fill-rule:nonzero;"/><path d="M1152.71,689.393l0,-232.031l52.031,-0l4.688,40.781l1.875,-0c8.437,-15.313 18.515,-26.875 30.234,-34.688c11.719,-7.812 23.516,-11.718 35.391,-11.718c6.25,-0 11.562,0.39 15.937,1.172c4.375,0.781 8.125,1.953 11.25,3.515l-10.781,55.313c-4.062,-0.938 -7.891,-1.797 -11.484,-2.578c-3.594,-0.782 -7.891,-1.172 -12.891,-1.172c-9.062,-0 -18.437,3.281 -28.125,9.843c-9.687,6.563 -17.812,18.125 -24.375,34.688l0,136.875l-63.75,-0Z" style="fill-rule:nonzero;"/></g></g><g><path d="M260.442,311.268l0,-306.094l66.094,0l84.844,158.906l30.469,66.563l1.875,-0c-1.563,-16.25 -3.282,-34.063 -5.157,-53.438c-1.875,-19.375 -2.812,-37.968 -2.812,-55.781l-0,-116.25l60.937,0l0,306.094l-65.625,-0l-84.843,-158.906l-30.938,-66.563l-1.875,0c1.563,16.563 3.36,34.375 5.391,53.438c2.031,19.062 3.047,37.343 3.047,54.843l-0,117.188l-61.407,-0Z" style="fill:#fff;fill-rule:nonzero;"/><path d="M570.755,311.268l-0,-306.094l190.312,0l0,53.906l-126.093,0l-0,76.407l107.812,-0l0,53.906l-107.812,-0l-0,121.875l-64.219,-0Z" style="fill:#fff;fill-rule:nonzero;"/><path d="M874.974,311.268l-0,-252.188l-85.313,0l0,-53.906l235.313,0l-0,53.906l-85.782,0l0,252.188l-64.218,-0Z" style="fill:#fff;fill-rule:nonzero;"/><path d="M2.864,686.268l0,-306.094l190.313,0l-0,53.906l-126.094,0l0,76.407l107.813,-0l-0,53.906l-107.813,-0l0,121.875l-64.219,-0Z" style="fill:#fff;fill-rule:nonzero;"/><path d="M241.458,686.268l0,-232.031l63.75,-0l0,232.031l-63.75,-0Zm31.875,-268.125c-10.312,-0 -18.906,-3.203 -25.781,-9.609c-6.875,-6.407 -10.313,-14.61 -10.313,-24.61c0,-10 3.438,-18.203 10.313,-24.609c6.875,-6.406 15.469,-9.61 25.781,-9.61c10.625,0 19.297,3.204 26.016,9.61c6.718,6.406 10.078,14.609 10.078,24.609c-0,10 -3.36,18.203 -10.078,24.61c-6.719,6.406 -15.391,9.609 -26.016,9.609Z" style="fill:#fff;fill-rule:nonzero;"/><path d="M368.958,686.268l0,-232.031l52.031,-0l4.688,30l1.875,-0c10,-9.688 21.015,-18.047 33.047,-25.078c12.031,-7.032 26.015,-10.547 41.953,-10.547c25,-0 43.203,8.281 54.609,24.843c11.406,16.563 17.11,39.375 17.11,68.438l-0,144.375l-64.219,-0l-0,-136.406c-0,-17.5 -2.422,-29.61 -7.266,-36.328c-4.844,-6.719 -12.734,-10.079 -23.672,-10.079c-9.375,0 -17.343,2.11 -23.906,6.329c-6.562,4.218 -14.062,10.234 -22.5,18.046l0,158.438l-63.75,-0Z" style="fill:#fff;fill-rule:nonzero;"/><path d="M717.239,691.893c-28.75,-0 -51.718,-10.781 -68.906,-32.344c-17.187,-21.562 -25.781,-51.25 -25.781,-89.062c-0,-25.313 4.609,-47.032 13.828,-65.157c9.219,-18.125 21.172,-32.109 35.859,-41.953c14.688,-9.843 30.313,-14.765 46.875,-14.765c13.125,-0 24.063,2.187 32.813,6.562c8.75,4.375 17.187,10.469 25.312,18.281l-2.343,-36.093l-0,-80.625l64.218,-0l0,329.531l-52.5,-0l-4.687,-23.906l-1.406,-0c-8.438,8.437 -18.204,15.468 -29.297,21.093c-11.094,5.625 -22.422,8.438 -33.985,8.438Zm16.407,-52.5c8.125,-0 15.468,-1.719 22.031,-5.156c6.562,-3.438 12.969,-9.219 19.219,-17.344l-0,-99.375c-6.563,-6.25 -13.36,-10.547 -20.391,-12.891c-7.031,-2.343 -13.984,-3.515 -20.859,-3.515c-8.125,-0 -15.625,2.578 -22.5,7.734c-6.875,5.156 -12.422,12.813 -16.641,22.969c-4.219,10.156 -6.328,22.734 -6.328,37.734c-0,23.438 3.984,40.938 11.953,52.5c7.969,11.563 19.141,17.344 33.516,17.344Z" style="fill:#fff;fill-rule:nonzero;"/><path d="M1004.58,691.893c-21.875,-0 -41.641,-4.844 -59.297,-14.531c-17.656,-9.688 -31.562,-23.516 -41.719,-41.485c-10.156,-17.968 -15.234,-39.765 -15.234,-65.39c0,-25 5.156,-46.563 15.469,-64.688c10.312,-18.125 23.75,-32.187 40.312,-42.187c16.563,-10 34.063,-15 52.5,-15c21.563,-0 39.61,4.843 54.141,14.531c14.531,9.687 25.469,22.891 32.812,39.609c7.344,16.719 11.016,35.703 11.016,56.953c0,5.625 -0.312,11.172 -0.937,16.641c-0.625,5.469 -1.25,9.609 -1.875,12.422l-153.282,-0l-0.468,-42.656l101.718,-0c0,-14.688 -3.359,-26.407 -10.078,-35.157c-6.719,-8.75 -17.265,-13.125 -31.64,-13.125c-8.438,0 -16.563,2.344 -24.375,7.032c-7.813,4.687 -14.219,12.343 -19.219,22.968c-5,10.625 -7.5,24.844 -7.5,42.657c-0,17.812 3.203,31.953 9.609,42.422c6.406,10.468 14.61,18.046 24.61,22.734c10,4.687 20.625,7.031 31.875,7.031c9.375,0 18.203,-1.328 26.484,-3.984c8.281,-2.656 16.641,-6.485 25.078,-11.485l21.094,38.907c-11.563,7.812 -24.453,14.062 -38.672,18.75c-14.219,4.687 -28.359,7.031 -42.422,7.031Z" style="fill:#fff;fill-rule:nonzero;"/><path d="M1143.33,686.268l0,-232.031l52.031,-0l4.688,40.781l1.875,-0c8.437,-15.313 18.515,-26.875 30.234,-34.688c11.719,-7.812 23.516,-11.718 35.391,-11.718c6.25,-0 11.562,0.39 15.937,1.172c4.375,0.781 8.125,1.953 11.25,3.515l-10.781,55.313c-4.062,-0.938 -7.891,-1.797 -11.484,-2.578c-3.594,-0.782 -7.891,-1.172 -12.891,-1.172c-9.062,-0 -18.437,3.281 -28.125,9.843c-9.687,6.563 -17.812,18.125 -24.375,34.688l0,136.875l-63.75,-0Z" style="fill:#fff;fill-rule:nonzero;"/></g></g></svg>